<?xml version="1.0" encoding="UTF-8"?>
<!DOCTYPE svg PUBLIC "-//W3C//DTD SVG 1.1//EN" "http://www.w3.org/Graphics/SVG/1.1/DTD/svg11.dtd">
<svg xmlns="http://www.w3.org/2000/svg" version="1.1" width="500px" height="500px" style="shape-rendering:geometricPrecision; text-rendering:geometricPrecision; image-rendering:optimizeQuality; fill-rule:evenodd; clip-rule:evenodd" xmlns:xlink="http://www.w3.org/1999/xlink">
<g><path style="opacity:1" fill="#f4f2f4" d="M 83.5,-0.5 C 194.833,-0.5 306.167,-0.5 417.5,-0.5C 462.311,9.97681 489.644,37.6435 499.5,82.5C 499.5,192.167 499.5,301.833 499.5,411.5C 491.127,461.873 461.794,491.206 411.5,499.5C 303.167,499.5 194.833,499.5 86.5,499.5C 38.9198,491.252 9.91979,463.585 -0.5,416.5C -0.5,303.833 -0.5,191.167 -0.5,78.5C 11.4124,34.9173 39.4124,8.58398 83.5,-0.5 Z"/></g>
<g><path style="opacity:1" fill="#f1d7fb" d="M 379.5,72.5 C 369.201,71.4063 358.867,71.2397 348.5,72C 347.944,72.3826 347.611,72.8826 347.5,73.5C 346.739,74.3909 345.739,75.0576 344.5,75.5C 339.538,76.5493 334.538,77.3826 329.5,78C 327.826,80.5042 325.493,82.0042 322.5,82.5C 323.089,80.6481 323.756,78.8148 324.5,77C 330.694,77.234 336.027,75.234 340.5,71C 353.167,70.3333 365.833,70.3333 378.5,71C 379.056,71.3826 379.389,71.8826 379.5,72.5 Z"/></g>
<g><path style="opacity:1" fill="#ebc8f6" d="M 379.5,72.5 C 384.166,75.7664 389.5,77.2664 395.5,77C 396.464,78.7255 397.131,80.5588 397.5,82.5C 394.779,82.0372 392.112,81.3705 389.5,80.5C 384.442,80.3159 380.108,78.4825 376.5,75C 372.886,74.0642 369.22,73.5642 365.5,73.5C 359.63,72.2338 353.63,72.2338 347.5,73.5C 347.611,72.8826 347.944,72.3826 348.5,72C 358.867,71.2397 369.201,71.4063 379.5,72.5 Z"/></g>
<g><path style="opacity:1" fill="#cd83e3" d="M 365.5,73.5 C 369.22,73.5642 372.886,74.0642 376.5,75C 380.108,78.4825 384.442,80.3159 389.5,80.5C 390.11,81.391 390.443,82.391 390.5,83.5C 386.46,81.5206 382.127,80.3539 377.5,80C 376.386,78.4301 375.053,77.0968 373.5,76C 365.5,75.3333 357.5,75.3333 349.5,76C 348.756,77.0386 347.756,77.5386 346.5,77.5C 347.343,75.8267 348.676,74.66 350.5,74C 355.489,73.5007 360.489,73.3341 365.5,73.5 Z"/></g>
<g><path style="opacity:1" fill="#e1aff0" d="M 365.5,73.5 C 360.489,73.3341 355.489,73.5007 350.5,74C 348.676,74.66 347.343,75.8267 346.5,77.5C 346.167,77.5 345.833,77.5 345.5,77.5C 333.282,78.6098 323.282,83.9431 315.5,93.5C 313.5,95.1667 311.5,96.8333 309.5,98.5C 309.629,96.7839 309.962,95.1172 310.5,93.5C 311.859,91.1763 313.859,89.5096 316.5,88.5C 317.452,86.9547 317.785,85.288 317.5,83.5C 319.216,83.3713 320.883,83.038 322.5,82.5C 325.493,82.0042 327.826,80.5042 329.5,78C 334.538,77.3826 339.538,76.5493 344.5,75.5C 345.739,75.0576 346.739,74.3909 347.5,73.5C 353.63,72.2338 359.63,72.2338 365.5,73.5 Z"/></g>
<g><path style="opacity:1" fill="#c973e2" d="M 345.5,77.5 C 341.676,78.3736 338.01,79.707 334.5,81.5C 332.318,82.2997 330.651,83.7997 329.5,86C 324.821,86.8618 321.488,89.3618 319.5,93.5C 318.167,93.5 316.833,93.5 315.5,93.5C 323.282,83.9431 333.282,78.6098 345.5,77.5 Z"/></g>
<g><path style="opacity:1" fill="#c617fb" d="M 367.5,81.5 C 368.833,81.5 370.167,81.5 371.5,81.5C 371.137,83.9115 372.137,85.4115 374.5,86C 379.481,86.7478 384.481,87.2478 389.5,87.5C 389.626,90.595 391.293,92.4283 394.5,93C 396.619,97.5953 400.285,99.762 405.5,99.5C 406.605,101.611 408.271,102.945 410.5,103.5C 410.842,104.338 411.508,104.672 412.5,104.5C 413.966,109.067 415.632,113.4 417.5,117.5C 418.959,117.567 420.292,117.234 421.5,116.5C 421.708,131.857 421.208,147.19 420,162.5C 417.41,166.156 415.41,170.156 414,174.5C 408.989,179.521 405.823,185.521 404.5,192.5C 404.5,192.833 404.5,193.167 404.5,193.5C 402.265,194.228 400.432,195.561 399,197.5C 397.977,201.879 396.144,205.879 393.5,209.5C 393.624,210.107 393.957,210.44 394.5,210.5C 391.284,214.941 388.618,219.607 386.5,224.5C 384.983,224.511 383.816,225.177 383,226.5C 379.683,235.139 375.35,243.139 370,250.5C 369.506,252.134 369.34,253.801 369.5,255.5C 364.939,255.56 362.439,257.893 362,262.5C 360.667,263.833 359.333,265.167 358,266.5C 357.28,268.112 357.446,269.612 358.5,271C 356.333,273.833 354.167,276.667 352,279.5C 351.405,280.899 351.572,282.232 352.5,283.5C 349.495,285.326 347.661,287.993 347,291.5C 340.932,294.634 338.265,299.634 339,306.5C 332.722,315.08 327.555,324.08 323.5,333.5C 322.078,333.709 320.745,334.209 319.5,335C 317.353,338.115 314.853,340.948 312,343.5C 311.461,346.529 310.794,349.529 310,352.5C 305.794,355.928 303.627,360.094 303.5,365C 302.15,369.685 299.317,373.185 295,375.5C 294.667,377.167 294.333,378.833 294,380.5C 290.176,383.12 288.343,386.787 288.5,391.5C 287.518,392.141 286.518,392.807 285.5,393.5C 283.869,398.759 281.703,403.759 279,408.5C 275.947,411.41 273.114,414.41 270.5,417.5C 263.382,421.233 256.716,425.733 250.5,431C 247.833,431.333 245.167,431.667 242.5,432C 241.874,432.75 241.374,433.584 241,434.5C 234.615,431.146 229.115,432.146 224.5,437.5C 219.833,437.5 215.167,437.5 210.5,437.5C 209.817,435.824 208.483,435.157 206.5,435.5C 206.714,433.856 206.38,432.356 205.5,431C 203.1,430.814 200.766,430.314 198.5,429.5C 195.578,427.245 192.578,425.078 189.5,423C 187.444,422.689 185.444,422.189 183.5,421.5C 182.167,419.167 180.833,416.833 179.5,414.5C 177.253,413.626 174.92,413.292 172.5,413.5C 173.048,408.336 171.548,404.002 168,400.5C 167.003,396.496 166.169,392.496 165.5,388.5C 163.576,380.957 163.076,373.29 164,365.5C 166,362.833 168,360.167 170,357.5C 169.661,348.166 172.995,340.5 180,334.5C 183.167,329.333 186.333,324.167 189.5,319C 188.944,318.617 188.611,318.117 188.5,317.5C 190.808,314.185 193.141,310.851 195.5,307.5C 197.411,307.426 198.578,306.426 199,304.5C 199.143,300.381 199.81,296.381 201,292.5C 205.195,286.792 209.862,281.459 215,276.5C 218.473,264.856 224.64,254.856 233.5,246.5C 234.244,243.557 234.744,240.557 235,237.5C 238.511,233.127 242.011,228.794 245.5,224.5C 248.01,220.685 250.01,216.685 251.5,212.5C 251.448,210.097 251.781,207.764 252.5,205.5C 257.801,200.029 262.967,194.362 268,188.5C 269.585,183.915 270.918,179.248 272,174.5C 272.997,172.677 274.164,171.01 275.5,169.5C 277.5,167.329 279.334,164.996 281,162.5C 281.47,161.423 281.303,160.423 280.5,159.5C 280.833,158.833 281.167,158.167 281.5,157.5C 282.794,156.71 283.961,155.71 285,154.5C 288.069,149.751 290.736,144.751 293,139.5C 294.351,137.981 295.851,136.648 297.5,135.5C 298.309,133.929 298.643,132.262 298.5,130.5C 308.844,114.832 320.844,100.499 334.5,87.5C 335.833,87.1667 337.167,86.8333 338.5,86.5C 344.698,87.6321 351.031,87.4654 357.5,86C 360.315,83.208 363.648,81.708 367.5,81.5 Z"/></g>
<g><path style="opacity:1" fill="#d99feb" d="M 389.5,80.5 C 392.112,81.3705 394.779,82.0372 397.5,82.5C 398.641,83.339 399.974,84.0057 401.5,84.5C 402.386,85.325 402.719,86.325 402.5,87.5C 398.41,87.2488 394.41,85.9155 390.5,83.5C 390.443,82.391 390.11,81.391 389.5,80.5 Z"/></g>
<g><path style="opacity:1" fill="#b027d6" d="M 410.5,103.5 C 408.271,102.945 406.605,101.611 405.5,99.5C 400.285,99.762 396.619,97.5953 394.5,93C 391.293,92.4283 389.626,90.595 389.5,87.5C 384.481,87.2478 379.481,86.7478 374.5,86C 372.137,85.4115 371.137,83.9115 371.5,81.5C 370.167,81.5 368.833,81.5 367.5,81.5C 361.491,81.3338 355.491,81.5005 349.5,82C 345.941,83.9622 342.274,85.4622 338.5,86.5C 337.167,86.8333 335.833,87.1667 334.5,87.5C 332.217,87.6079 330.217,88.4412 328.5,90C 316.603,101.881 306.27,114.881 297.5,129C 297.57,129.765 297.903,130.265 298.5,130.5C 298.643,132.262 298.309,133.929 297.5,135.5C 295.851,136.648 294.351,137.981 293,139.5C 290.736,144.751 288.069,149.751 285,154.5C 283.961,155.71 282.794,156.71 281.5,157.5C 282.657,151.862 283.99,146.196 285.5,140.5C 288.72,136.049 291.387,131.382 293.5,126.5C 294.496,126.414 295.329,126.748 296,127.5C 297.25,122.655 299.75,118.655 303.5,115.5C 306.096,111.263 308.596,106.93 311,102.5C 314.294,99.8914 317.127,96.8914 319.5,93.5C 321.488,89.3618 324.821,86.8618 329.5,86C 330.651,83.7997 332.318,82.2997 334.5,81.5C 339.692,81.7266 344.692,80.8933 349.5,79C 355.833,78.3333 362.167,78.3333 368.5,79C 374.344,80.9607 380.344,82.294 386.5,83C 387.047,83.9246 387.713,84.7579 388.5,85.5C 391.769,86.8536 395.102,88.0203 398.5,89C 399.677,92.3494 402.01,93.8494 405.5,93.5C 407.651,96.4686 409.318,99.802 410.5,103.5 Z"/></g>
<g><path style="opacity:1" fill="#ba18e6" d="M 367.5,81.5 C 363.648,81.708 360.315,83.208 357.5,86C 351.031,87.4654 344.698,87.6321 338.5,86.5C 342.274,85.4622 345.941,83.9622 349.5,82C 355.491,81.5005 361.491,81.3338 367.5,81.5 Z"/></g>
<g><path style="opacity:1" fill="#ba54d8" d="M 390.5,83.5 C 394.41,85.9155 398.41,87.2488 402.5,87.5C 402.5,87.8333 402.5,88.1667 402.5,88.5C 403.287,90.1042 404.62,90.7709 406.5,90.5C 408.629,95.1502 411.795,99.1502 416,102.5C 416.791,103.745 417.291,105.078 417.5,106.5C 416.18,105.058 414.514,104.392 412.5,104.5C 411.508,104.672 410.842,104.338 410.5,103.5C 409.318,99.802 407.651,96.4686 405.5,93.5C 402.01,93.8494 399.677,92.3494 398.5,89C 395.102,88.0203 391.769,86.8536 388.5,85.5C 387.713,84.7579 387.047,83.9246 386.5,83C 380.344,82.294 374.344,80.9607 368.5,79C 362.167,78.3333 355.833,78.3333 349.5,79C 344.692,80.8933 339.692,81.7266 334.5,81.5C 338.01,79.707 341.676,78.3736 345.5,77.5C 345.833,77.5 346.167,77.5 346.5,77.5C 347.756,77.5386 348.756,77.0386 349.5,76C 357.5,75.3333 365.5,75.3333 373.5,76C 375.053,77.0968 376.386,78.4301 377.5,80C 382.127,80.3539 386.46,81.5206 390.5,83.5 Z"/></g>
<g><path style="opacity:1" fill="#d78fec" d="M 402.5,88.5 C 405.769,88.8844 408.603,90.2177 411,92.5C 414.575,96.8766 417.741,101.543 420.5,106.5C 423.987,107.509 425.32,109.842 424.5,113.5C 424.5,114.5 424.5,115.5 424.5,116.5C 423.5,115.833 422.5,115.167 421.5,114.5C 420.674,111.515 419.341,108.849 417.5,106.5C 417.291,105.078 416.791,103.745 416,102.5C 411.795,99.1502 408.629,95.1502 406.5,90.5C 404.62,90.7709 403.287,90.1042 402.5,88.5 Z"/></g>
<g><path style="opacity:1" fill="#b950d7" d="M 315.5,93.5 C 316.833,93.5 318.167,93.5 319.5,93.5C 317.127,96.8914 314.294,99.8914 311,102.5C 308.596,106.93 306.096,111.263 303.5,115.5C 299.75,118.655 297.25,122.655 296,127.5C 295.329,126.748 294.496,126.414 293.5,126.5C 295.664,123.524 297.164,120.191 298,116.5C 299.444,114.845 301.278,114.178 303.5,114.5C 303.624,110.588 304.624,106.921 306.5,103.5C 307.075,101.589 308.075,99.922 309.5,98.5C 311.5,96.8333 313.5,95.1667 315.5,93.5 Z"/></g>
<g><path style="opacity:1" fill="#e8c0f5" d="M 310.5,93.5 C 309.962,95.1172 309.629,96.7839 309.5,98.5C 308.075,99.922 307.075,101.589 306.5,103.5C 304.754,105.252 302.754,106.585 300.5,107.5C 300.34,105.801 300.506,104.134 301,102.5C 302.878,101.947 304.378,100.947 305.5,99.5C 304.425,95.062 306.092,93.062 310.5,93.5 Z"/></g>
<g><path style="opacity:1" fill="#f5defc" d="M 305.5,99.5 C 304.378,100.947 302.878,101.947 301,102.5C 300.506,104.134 300.34,105.801 300.5,107.5C 300.167,108.833 299.833,110.167 299.5,111.5C 296.642,111.028 294.642,112.028 293.5,114.5C 295.104,110.396 296.937,106.396 299,102.5C 300.509,100.081 302.675,99.0807 305.5,99.5 Z"/></g>
<g><path style="opacity:1" fill="#edc9fa" d="M 397.5,82.5 C 399.857,82.3367 402.19,82.5034 404.5,83C 406.155,84.4443 406.822,86.2776 406.5,88.5C 408.833,88.5 411.167,88.5 413.5,88.5C 413.351,89.552 413.517,90.552 414,91.5C 416.292,92.7899 418.292,94.4565 420,96.5C 421.256,100.05 423.256,103.05 426,105.5C 425.684,109.137 427.018,111.804 430,113.5C 430.813,115.436 431.313,117.436 431.5,119.5C 431.5,120.5 431.5,121.5 431.5,122.5C 430.519,120.691 429.019,119.357 427,118.5C 426.901,116.347 426.067,114.681 424.5,113.5C 425.32,109.842 423.987,107.509 420.5,106.5C 417.741,101.543 414.575,96.8766 411,92.5C 408.603,90.2177 405.769,88.8844 402.5,88.5C 402.5,88.1667 402.5,87.8333 402.5,87.5C 402.719,86.325 402.386,85.325 401.5,84.5C 399.974,84.0057 398.641,83.339 397.5,82.5 Z"/></g>
<g><path style="opacity:1" fill="#b02cd6" d="M 412.5,104.5 C 414.514,104.392 416.18,105.058 417.5,106.5C 419.341,108.849 420.674,111.515 421.5,114.5C 421.5,115.167 421.5,115.833 421.5,116.5C 420.292,117.234 418.959,117.567 417.5,117.5C 415.632,113.4 413.966,109.067 412.5,104.5 Z"/></g>
<g><path style="opacity:1" fill="#ba19e5" d="M 334.5,87.5 C 320.844,100.499 308.844,114.832 298.5,130.5C 297.903,130.265 297.57,129.765 297.5,129C 306.27,114.881 316.603,101.881 328.5,90C 330.217,88.4412 332.217,87.6079 334.5,87.5 Z"/></g>
<g><path style="opacity:1" fill="#ebc1f6" d="M 299.5,111.5 C 296.677,117.145 293.344,122.478 289.5,127.5C 290.548,123.736 291.881,120.069 293.5,116.5C 293.5,115.833 293.5,115.167 293.5,114.5C 294.642,112.028 296.642,111.028 299.5,111.5 Z"/></g>
<g><path style="opacity:1" fill="#e393f8" d="M 146.5,117.5 C 147.5,118.167 148.5,118.833 149.5,119.5C 135.127,118.851 121.127,119.518 107.5,121.5C 105.079,121.878 102.746,122.545 100.5,123.5C 105.084,119.373 110.417,116.54 116.5,115C 126.167,114.333 135.833,114.333 145.5,115C 146.252,115.671 146.586,116.504 146.5,117.5 Z"/></g>
<g><path style="opacity:1" fill="#dda4ec" d="M 146.5,117.5 C 148.167,117.5 149.833,117.5 151.5,117.5C 152.167,117.5 152.833,117.5 153.5,117.5C 156.023,118.384 158.69,119.218 161.5,120C 162.823,120.816 163.489,121.983 163.5,123.5C 162.391,123.443 161.391,123.11 160.5,122.5C 156.976,121.035 153.309,120.035 149.5,119.5C 148.5,118.833 147.5,118.167 146.5,117.5 Z"/></g>
<g><path style="opacity:1" fill="#edc9fa" d="M 151.5,117.5 C 149.833,117.5 148.167,117.5 146.5,117.5C 146.586,116.504 146.252,115.671 145.5,115C 135.833,114.333 126.167,114.333 116.5,115C 110.417,116.54 105.084,119.373 100.5,123.5C 96.253,123.178 92.253,124.011 88.5,126C 84.0371,129.849 79.7038,133.682 75.5,137.5C 75.1667,136.833 74.8333,136.167 74.5,135.5C 75.5676,134.566 76.901,134.232 78.5,134.5C 78.2629,125.906 82.5963,121.74 91.5,122C 93.792,120.71 95.792,119.043 97.5,117C 100.833,116.667 104.167,116.333 107.5,116C 108.167,114.667 109.167,113.667 110.5,113C 123.5,112.333 136.5,112.333 149.5,113C 151.037,114.11 151.703,115.61 151.5,117.5 Z"/></g>
<g><path style="opacity:1" fill="#f1d8fb" d="M 293.5,116.5 C 291.881,120.069 290.548,123.736 289.5,127.5C 289.5,127.833 289.5,128.167 289.5,128.5C 288.833,128.5 288.167,128.5 287.5,128.5C 286.036,122.617 288.036,118.617 293.5,116.5 Z"/></g>
<g><path style="opacity:1" fill="#daa5eb" d="M 424.5,113.5 C 426.067,114.681 426.901,116.347 427,118.5C 429.019,119.357 430.519,120.691 431.5,122.5C 431.973,133.828 432.307,145.162 432.5,156.5C 432.5,157.167 432.5,157.833 432.5,158.5C 431.833,159.5 431.167,160.5 430.5,161.5C 430.667,150.162 430.5,138.828 430,127.5C 429.768,126.263 429.268,125.263 428.5,124.5C 427.601,121.605 426.267,118.938 424.5,116.5C 424.5,115.5 424.5,114.5 424.5,113.5 Z"/></g>
<g><path style="opacity:1" fill="#bd4cdb" d="M 149.5,119.5 C 153.309,120.035 156.976,121.035 160.5,122.5C 160.433,123.959 160.766,125.292 161.5,126.5C 159.167,126.5 156.833,126.5 154.5,126.5C 154.714,124.856 154.38,123.356 153.5,122C 138.17,121.5 122.837,121.333 107.5,121.5C 121.127,119.518 135.127,118.851 149.5,119.5 Z"/></g>
<g><path style="opacity:1" fill="#c517f9" d="M 177.5,138.5 C 177.343,139.873 177.51,141.207 178,142.5C 180.39,144.267 182.057,146.6 183,149.5C 184.356,150.38 185.856,150.714 187.5,150.5C 188.203,155.951 189.536,161.284 191.5,166.5C 192.86,167.18 194.193,167.847 195.5,168.5C 195.5,168.833 195.5,169.167 195.5,169.5C 195.666,178.173 195.5,186.84 195,195.5C 194.144,199.544 192.478,203.211 190,206.5C 189.501,210.486 189.334,214.486 189.5,218.5C 186.97,221.688 184.304,224.855 181.5,228C 173.586,233.244 166.252,239.244 159.5,246C 156.676,248.079 153.676,249.579 150.5,250.5C 146.471,250.524 142.638,249.857 139,248.5C 133.992,250.25 128.825,251.25 123.5,251.5C 119.74,245.025 114.406,243.359 107.5,246.5C 105.591,245.652 103.591,245.318 101.5,245.5C 99.9147,244.526 98.9147,243.026 98.5,241C 96.8876,240.28 95.3876,240.446 94,241.5C 93.2411,239.365 91.7411,238.032 89.5,237.5C 88.7025,237.957 88.3691,238.624 88.5,239.5C 86.9481,237.965 85.6148,236.131 84.5,234C 82.8659,233.506 81.1992,233.34 79.5,233.5C 79.6567,232.127 79.49,230.793 79,229.5C 77.3308,228.154 76.1642,226.487 75.5,224.5C 74.7611,220.824 73.4277,217.49 71.5,214.5C 71.1667,210.833 70.8333,207.167 70.5,203.5C 71.0804,190.17 71.5804,176.836 72,163.5C 73.6667,161.167 75.3333,158.833 77,156.5C 77.4935,154.866 77.6602,153.199 77.5,151.5C 77.5,151.167 77.5,150.833 77.5,150.5C 82.6029,144.895 87.9362,139.395 93.5,134C 96.1667,133.667 98.8333,133.333 101.5,133C 103.333,131.167 105.167,129.333 107,127.5C 109.553,129.729 112.386,130.062 115.5,128.5C 117.091,125.744 119.424,123.911 122.5,123C 129.826,122.5 137.159,122.334 144.5,122.5C 144.286,124.144 144.62,125.644 145.5,127C 149.167,127.333 152.833,127.667 156.5,128C 158.739,130.614 161.405,131.114 164.5,129.5C 166.447,131.754 168.114,134.254 169.5,137C 172.117,137.822 174.784,138.322 177.5,138.5 Z"/></g>
<g><path style="opacity:1" fill="#b128d7" d="M 107.5,121.5 C 122.837,121.333 138.17,121.5 153.5,122C 154.38,123.356 154.714,124.856 154.5,126.5C 156.833,126.5 159.167,126.5 161.5,126.5C 164.308,127.103 166.974,128.103 169.5,129.5C 172.189,132.52 174.856,135.52 177.5,138.5C 174.784,138.322 172.117,137.822 169.5,137C 168.114,134.254 166.447,131.754 164.5,129.5C 161.405,131.114 158.739,130.614 156.5,128C 152.833,127.667 149.167,127.333 145.5,127C 144.62,125.644 144.286,124.144 144.5,122.5C 137.159,122.334 129.826,122.5 122.5,123C 119.424,123.911 117.091,125.744 115.5,128.5C 112.386,130.062 109.553,129.729 107,127.5C 105.167,129.333 103.333,131.167 101.5,133C 98.8333,133.333 96.1667,133.667 93.5,134C 87.9362,139.395 82.6029,144.895 77.5,150.5C 77.2148,148.712 77.5481,147.045 78.5,145.5C 82.025,143.122 84.025,139.789 84.5,135.5C 87.1878,133.479 89.5211,131.146 91.5,128.5C 94.6276,127.017 97.6276,125.351 100.5,123.5C 102.746,122.545 105.079,121.878 107.5,121.5 Z"/></g>
<g><path style="opacity:1" fill="#d48cea" d="M 100.5,123.5 C 97.6276,125.351 94.6276,127.017 91.5,128.5C 88.0108,129.477 85.1775,131.477 83,134.5C 78.948,139.712 75.1146,145.045 71.5,150.5C 70.8333,150.833 70.1667,151.167 69.5,151.5C 69.9707,149.421 70.6373,147.421 71.5,145.5C 72.8333,142.833 74.1667,140.167 75.5,137.5C 79.7038,133.682 84.0371,129.849 88.5,126C 92.253,124.011 96.253,123.178 100.5,123.5 Z"/></g>
<g><path style="opacity:1" fill="#efd0fa" d="M 153.5,117.5 C 157.182,117.335 160.848,117.501 164.5,118C 165.38,119.356 165.714,120.856 165.5,122.5C 170.141,123.127 174.807,123.46 179.5,123.5C 179.738,127.524 180.738,131.19 182.5,134.5C 186.833,134.167 188.833,136.167 188.5,140.5C 194.265,141.788 196.765,145.454 196,151.5C 197.667,152.833 199.333,154.167 201,155.5C 200.681,160.439 202.014,164.773 205,168.5C 205.667,183.5 205.667,198.5 205,213.5C 203.89,215.037 202.39,215.703 200.5,215.5C 200.663,217.857 200.497,220.19 200,222.5C 196.828,226.841 194.161,231.508 192,236.5C 189.234,239.777 186.067,242.443 182.5,244.5C 184.306,238.854 187.806,234.521 193,231.5C 193.495,229.527 193.662,227.527 193.5,225.5C 196.838,221.822 198.838,217.489 199.5,212.5C 200.5,212.5 201.5,212.5 202.5,212.5C 204.67,200.759 205.004,189.092 203.5,177.5C 202.045,171.931 200.045,166.598 197.5,161.5C 197.5,160.833 197.5,160.167 197.5,159.5C 196.554,157.11 195.221,154.944 193.5,153C 195.013,149.862 194.013,148.028 190.5,147.5C 190.5,147.167 190.5,146.833 190.5,146.5C 189.122,144.337 187.955,142.004 187,139.5C 181.947,135.57 177.447,131.07 173.5,126C 170.937,124.921 168.271,124.421 165.5,124.5C 164.508,124.672 163.842,124.338 163.5,123.5C 163.489,121.983 162.823,120.816 161.5,120C 158.69,119.218 156.023,118.384 153.5,117.5 Z"/></g>
<g><path style="opacity:1" fill="#d17fe6" d="M 306.5,103.5 C 304.624,106.921 303.624,110.588 303.5,114.5C 301.278,114.178 299.444,114.845 298,116.5C 297.164,120.191 295.664,123.524 293.5,126.5C 291.387,131.382 288.72,136.049 285.5,140.5C 284.833,140.833 284.167,141.167 283.5,141.5C 283.5,141.167 283.5,140.833 283.5,140.5C 285.113,137.714 286.946,135.047 289,132.5C 289.49,131.207 289.657,129.873 289.5,128.5C 289.5,128.167 289.5,127.833 289.5,127.5C 293.344,122.478 296.677,117.145 299.5,111.5C 299.833,110.167 300.167,108.833 300.5,107.5C 302.754,106.585 304.754,105.252 306.5,103.5 Z"/></g>
<g><path style="opacity:1" fill="#b11edb" d="M 421.5,116.5 C 422.53,119.95 423.863,123.283 425.5,126.5C 424.962,137.342 424.962,148.009 425.5,158.5C 424.828,159.267 423.995,159.934 423,160.5C 423.348,164.887 422.014,168.553 419,171.5C 416.781,175.271 415.115,179.271 414,183.5C 413.292,184.381 412.458,185.047 411.5,185.5C 409.527,188.139 407.194,190.473 404.5,192.5C 405.823,185.521 408.989,179.521 414,174.5C 415.41,170.156 417.41,166.156 420,162.5C 421.208,147.19 421.708,131.857 421.5,116.5 Z"/></g>
<g><path style="opacity:1" fill="#eab6f8" d="M 287.5,128.5 C 288.167,128.5 288.833,128.5 289.5,128.5C 289.657,129.873 289.49,131.207 289,132.5C 286.946,135.047 285.113,137.714 283.5,140.5C 282.366,138.034 282.199,135.367 283,132.5C 284.859,131.421 286.359,130.088 287.5,128.5 Z"/></g>
<g><path style="opacity:1" fill="#9a22bd" d="M 425.5,126.5 C 426.222,126.918 426.722,127.584 427,128.5C 427.167,133.5 427.333,138.5 427.5,143.5C 427.494,148.881 426.828,153.881 425.5,158.5C 424.962,148.009 424.962,137.342 425.5,126.5 Z"/></g>
<g><path style="opacity:1" fill="#db9ff0" d="M 165.5,124.5 C 168.271,124.421 170.937,124.921 173.5,126C 177.447,131.07 181.947,135.57 187,139.5C 187.955,142.004 189.122,144.337 190.5,146.5C 189.883,146.611 189.383,146.944 189,147.5C 184.067,140.781 178.567,134.614 172.5,129C 169.761,127.974 167.428,126.474 165.5,124.5 Z"/></g>
<g><path style="opacity:1" fill="#f2d8fc" d="M 431.5,119.5 C 432.933,125.611 433.766,131.944 434,138.5C 434.837,136.993 436.004,136.493 437.5,137C 438.622,140.409 438.789,143.909 438,147.5C 435.435,150.193 433.602,153.193 432.5,156.5C 432.307,145.162 431.973,133.828 431.5,122.5C 431.5,121.5 431.5,120.5 431.5,119.5 Z"/></g>
<g><path style="opacity:1" fill="#b72ddd" d="M 177.5,138.5 C 181.267,142.255 184.6,146.255 187.5,150.5C 185.856,150.714 184.356,150.38 183,149.5C 182.057,146.6 180.39,144.267 178,142.5C 177.51,141.207 177.343,139.873 177.5,138.5 Z"/></g>
<g><path style="opacity:1" fill="#ba40dc" d="M 91.5,128.5 C 89.5211,131.146 87.1878,133.479 84.5,135.5C 84.025,139.789 82.025,143.122 78.5,145.5C 77.5481,147.045 77.2148,148.712 77.5,150.5C 77.5,150.833 77.5,151.167 77.5,151.5C 75.5,151.5 73.5,151.5 71.5,151.5C 71.5,151.167 71.5,150.833 71.5,150.5C 75.1146,145.045 78.948,139.712 83,134.5C 85.1775,131.477 88.0108,129.477 91.5,128.5 Z"/></g>
<g><path style="opacity:1" fill="#d797e8" d="M 283.5,141.5 C 281.889,143.641 280.389,145.974 279,148.5C 278.667,150.167 278.333,151.833 278,153.5C 275.211,155.776 273.044,158.443 271.5,161.5C 271.394,158.921 272.061,156.588 273.5,154.5C 274.209,153.596 275.209,153.263 276.5,153.5C 275.5,147.51 277.834,143.51 283.5,141.5 Z"/></g>
<g><path style="opacity:1" fill="#f1d6fb" d="M 287.5,128.5 C 286.359,130.088 284.859,131.421 283,132.5C 282.199,135.367 282.366,138.034 283.5,140.5C 283.5,140.833 283.5,141.167 283.5,141.5C 277.834,143.51 275.5,147.51 276.5,153.5C 275.209,153.263 274.209,153.596 273.5,154.5C 272.504,154.414 271.671,154.748 271,155.5C 269.443,159.55 267.276,163.217 264.5,166.5C 264.337,164.143 264.503,161.81 265,159.5C 268.771,158.776 270.437,156.443 270,152.5C 270.736,149.68 272.402,147.68 275,146.5C 275.973,144.608 276.64,142.608 277,140.5C 280.147,138.449 281.814,135.449 282,131.5C 283.488,129.84 285.321,128.84 287.5,128.5 Z"/></g>
<g><path style="opacity:1" fill="#d391e8" d="M 190.5,147.5 C 194.013,148.028 195.013,149.862 193.5,153C 195.221,154.944 196.554,157.11 197.5,159.5C 192.722,157.029 190.389,153.029 190.5,147.5 Z"/></g>
<g><path style="opacity:1" fill="#f2dbfc" d="M 74.5,135.5 C 74.8333,136.167 75.1667,136.833 75.5,137.5C 74.1667,140.167 72.8333,142.833 71.5,145.5C 70.325,145.281 69.325,145.614 68.5,146.5C 67.6439,151.349 64.9772,154.682 60.5,156.5C 60.1198,151.89 62.1198,149.224 66.5,148.5C 65.6684,143.44 67.6684,140.773 72.5,140.5C 72.1201,138.302 72.7868,136.635 74.5,135.5 Z"/></g>
<g><path style="opacity:1" fill="#b84dd5" d="M 285.5,140.5 C 283.99,146.196 282.657,151.862 281.5,157.5C 281.167,158.167 280.833,158.833 280.5,159.5C 278.914,160.148 277.247,160.648 275.5,161C 274.149,163.264 272.483,165.098 270.5,166.5C 270.433,165.041 270.766,163.708 271.5,162.5C 271.5,162.167 271.5,161.833 271.5,161.5C 273.044,158.443 275.211,155.776 278,153.5C 278.333,151.833 278.667,150.167 279,148.5C 280.389,145.974 281.889,143.641 283.5,141.5C 284.167,141.167 284.833,140.833 285.5,140.5 Z"/></g>
<g><path style="opacity:1" fill="#ebc7f9" d="M 71.5,145.5 C 70.6373,147.421 69.9707,149.421 69.5,151.5C 68.2632,152.965 67.2632,154.632 66.5,156.5C 64.9755,157.174 63.6422,158.174 62.5,159.5C 61.6188,166.209 60.6188,172.875 59.5,179.5C 58.8826,179.611 58.3826,179.944 58,180.5C 57.5005,186.825 57.3338,193.158 57.5,199.5C 56.3412,189.008 56.1745,178.341 57,167.5C 58.0386,166.756 58.5386,165.756 58.5,164.5C 59.7682,162.095 60.4349,159.428 60.5,156.5C 64.9772,154.682 67.6439,151.349 68.5,146.5C 69.325,145.614 70.325,145.281 71.5,145.5 Z"/></g>
<g><path style="opacity:1" fill="#e7bcf7" d="M 273.5,154.5 C 272.061,156.588 271.394,158.921 271.5,161.5C 271.5,161.833 271.5,162.167 271.5,162.5C 270.504,162.414 269.671,162.748 269,163.5C 265.24,169.074 261.74,174.741 258.5,180.5C 258.998,177.171 259.998,174.005 261.5,171C 260.944,170.617 260.611,170.117 260.5,169.5C 261.833,169.5 263.167,169.5 264.5,169.5C 264.5,168.5 264.5,167.5 264.5,166.5C 267.276,163.217 269.443,159.55 271,155.5C 271.671,154.748 272.504,154.414 273.5,154.5 Z"/></g>
<g><path style="opacity:1" fill="#f1dafa" d="M 432.5,158.5 C 432.666,163.179 432.499,167.845 432,172.5C 430.556,174.155 428.722,174.822 426.5,174.5C 428.372,170.738 429.705,166.738 430.5,162.5C 430.5,162.167 430.5,161.833 430.5,161.5C 431.167,160.5 431.833,159.5 432.5,158.5 Z"/></g>
<g><path style="opacity:1" fill="#c273da" d="M 428.5,124.5 C 429.268,125.263 429.768,126.263 430,127.5C 430.5,138.828 430.667,150.162 430.5,161.5C 430.5,161.833 430.5,162.167 430.5,162.5C 428.521,163.812 426.855,165.479 425.5,167.5C 425.643,164.903 426.477,162.569 428,160.5C 428.5,148.505 428.667,136.505 428.5,124.5 Z"/></g>
<g><path style="opacity:1" fill="#a827cc" d="M 187.5,150.5 C 188.771,155.006 191.271,159.006 195,162.5C 195.495,164.473 195.662,166.473 195.5,168.5C 194.193,167.847 192.86,167.18 191.5,166.5C 189.536,161.284 188.203,155.951 187.5,150.5 Z"/></g>
<g><path style="opacity:1" fill="#b833dd" d="M 280.5,159.5 C 281.303,160.423 281.47,161.423 281,162.5C 279.334,164.996 277.5,167.329 275.5,169.5C 274.761,169.369 274.094,169.536 273.5,170C 269.939,174.386 266.273,178.552 262.5,182.5C 262.5,181.5 262.5,180.5 262.5,179.5C 262.491,177.692 262.991,176.025 264,174.5C 266.031,171.645 268.197,168.978 270.5,166.5C 272.483,165.098 274.149,163.264 275.5,161C 277.247,160.648 278.914,160.148 280.5,159.5 Z"/></g>
<g><path style="opacity:1" fill="#e5b6f3" d="M 430.5,162.5 C 429.705,166.738 428.372,170.738 426.5,174.5C 426.5,175.167 426.5,175.833 426.5,176.5C 425.833,176.833 425.167,177.167 424.5,177.5C 424.5,175.5 424.5,173.5 424.5,171.5C 424.833,170.167 425.167,168.833 425.5,167.5C 426.855,165.479 428.521,163.812 430.5,162.5 Z"/></g>
<g><path style="opacity:1" fill="#b330d7" d="M 66.5,162.5 C 66.5,178.833 66.5,195.167 66.5,211.5C 65.6753,207.353 65.1753,203.019 65,198.5C 64.7216,197.584 64.2216,196.918 63.5,196.5C 63.1811,185.456 63.6811,174.456 65,163.5C 65.3826,162.944 65.8826,162.611 66.5,162.5 Z"/></g>
<g><path style="opacity:1" fill="#b61ede" d="M 71.5,151.5 C 73.5,151.5 75.5,151.5 77.5,151.5C 77.6602,153.199 77.4935,154.866 77,156.5C 75.3333,158.833 73.6667,161.167 72,163.5C 71.5804,176.836 71.0804,190.17 70.5,203.5C 70.8333,207.167 71.1667,210.833 71.5,214.5C 73.4277,217.49 74.7611,220.824 75.5,224.5C 73.9826,224.489 72.8159,223.823 72,222.5C 70.3446,218.697 68.5112,215.03 66.5,211.5C 66.5,195.167 66.5,178.833 66.5,162.5C 67.0312,160.456 68.1978,158.789 70,157.5C 70.3153,155.414 70.8153,153.414 71.5,151.5 Z"/></g>
<g><path style="opacity:1" fill="#df95f3" d="M 197.5,161.5 C 200.045,166.598 202.045,171.931 203.5,177.5C 203.666,186.506 203.5,195.506 203,204.5C 202.329,203.748 201.496,203.414 200.5,203.5C 201.613,194.214 201.78,184.881 201,175.5C 198.294,171.215 197.127,166.548 197.5,161.5 Z"/></g>
<g><path style="opacity:1" fill="#af3ecf" d="M 421.5,114.5 C 422.5,115.167 423.5,115.833 424.5,116.5C 426.267,118.938 427.601,121.605 428.5,124.5C 428.667,136.505 428.5,148.505 428,160.5C 426.477,162.569 425.643,164.903 425.5,167.5C 425.167,168.833 424.833,170.167 424.5,171.5C 423.839,172.718 423.172,174.051 422.5,175.5C 420.742,176.128 419.242,177.128 418,178.5C 416.582,183.01 414.415,187.01 411.5,190.5C 411.5,188.833 411.5,187.167 411.5,185.5C 412.458,185.047 413.292,184.381 414,183.5C 415.115,179.271 416.781,175.271 419,171.5C 422.014,168.553 423.348,164.887 423,160.5C 423.995,159.934 424.828,159.267 425.5,158.5C 426.828,153.881 427.494,148.881 427.5,143.5C 427.333,138.5 427.167,133.5 427,128.5C 426.722,127.584 426.222,126.918 425.5,126.5C 423.863,123.283 422.53,119.95 421.5,116.5C 421.5,115.833 421.5,115.167 421.5,114.5 Z"/></g>
<g><path style="opacity:1" fill="#bb37de" d="M 195.5,169.5 C 196.163,173.518 197.33,177.518 199,181.5C 199.667,186.167 199.667,190.833 199,195.5C 197.34,202.504 195.673,209.504 194,216.5C 192.53,217.267 191.03,217.933 189.5,218.5C 189.334,214.486 189.501,210.486 190,206.5C 192.478,203.211 194.144,199.544 195,195.5C 195.5,186.84 195.666,178.173 195.5,169.5 Z"/></g>
<g><path style="opacity:1" fill="#c267e0" d="M 71.5,150.5 C 71.5,150.833 71.5,151.167 71.5,151.5C 70.8153,153.414 70.3153,155.414 70,157.5C 68.1978,158.789 67.0312,160.456 66.5,162.5C 65.8826,162.611 65.3826,162.944 65,163.5C 63.6811,174.456 63.1811,185.456 63.5,196.5C 63.5,197.833 63.5,199.167 63.5,200.5C 62.5,199.833 61.5,199.167 60.5,198.5C 60.5,197.167 60.5,195.833 60.5,194.5C 60.2556,184.411 61.0889,174.411 63,164.5C 63.9064,161.69 65.0731,159.024 66.5,156.5C 67.2632,154.632 68.2632,152.965 69.5,151.5C 70.1667,151.167 70.8333,150.833 71.5,150.5 Z"/></g>
<g><path style="opacity:1" fill="#db9cf0" d="M 271.5,162.5 C 270.766,163.708 270.433,165.041 270.5,166.5C 268.197,168.978 266.031,171.645 264,174.5C 262.991,176.025 262.491,177.692 262.5,179.5C 260.36,182.061 258.027,184.395 255.5,186.5C 254.903,186.265 254.57,185.765 254.5,185C 256.018,183.649 257.351,182.149 258.5,180.5C 261.74,174.741 265.24,169.074 269,163.5C 269.671,162.748 270.504,162.414 271.5,162.5 Z"/></g>
<g><path style="opacity:1" fill="#f2ddfc" d="M 426.5,176.5 C 427.45,182.264 425.45,186.597 420.5,189.5C 419.789,185.719 420.955,182.719 424,180.5C 424.483,179.552 424.649,178.552 424.5,177.5C 425.167,177.167 425.833,176.833 426.5,176.5 Z"/></g>
<g><path style="opacity:1" fill="#edd7fa" d="M 58.5,164.5 C 58.5386,165.756 58.0386,166.756 57,167.5C 56.1745,178.341 56.3412,189.008 57.5,199.5C 57.2641,202.609 57.5975,205.609 58.5,208.5C 57.5041,208.414 56.6708,208.748 56,209.5C 55.3333,194.833 55.3333,180.167 56,165.5C 56.6708,164.748 57.5041,164.414 58.5,164.5 Z"/></g>
<g><path style="opacity:1" fill="#c760e3" d="M 160.5,122.5 C 161.391,123.11 162.391,123.443 163.5,123.5C 163.842,124.338 164.508,124.672 165.5,124.5C 167.428,126.474 169.761,127.974 172.5,129C 178.567,134.614 184.067,140.781 189,147.5C 189.383,146.944 189.883,146.611 190.5,146.5C 190.5,146.833 190.5,147.167 190.5,147.5C 190.389,153.029 192.722,157.029 197.5,159.5C 197.5,160.167 197.5,160.833 197.5,161.5C 197.127,166.548 198.294,171.215 201,175.5C 201.78,184.881 201.613,194.214 200.5,203.5C 199.766,204.708 199.433,206.041 199.5,207.5C 197.983,214.195 194.65,219.861 189.5,224.5C 189.5,222.5 189.5,220.5 189.5,218.5C 191.03,217.933 192.53,217.267 194,216.5C 195.673,209.504 197.34,202.504 199,195.5C 199.667,190.833 199.667,186.167 199,181.5C 197.33,177.518 196.163,173.518 195.5,169.5C 195.5,169.167 195.5,168.833 195.5,168.5C 195.662,166.473 195.495,164.473 195,162.5C 191.271,159.006 188.771,155.006 187.5,150.5C 184.6,146.255 181.267,142.255 177.5,138.5C 174.856,135.52 172.189,132.52 169.5,129.5C 166.974,128.103 164.308,127.103 161.5,126.5C 160.766,125.292 160.433,123.959 160.5,122.5 Z"/></g>
<g><path style="opacity:1" fill="#e3b2f5" d="M 59.5,179.5 C 59.1795,184.695 59.5128,189.695 60.5,194.5C 60.5,195.833 60.5,197.167 60.5,198.5C 61.1958,202.452 61.6958,206.452 62,210.5C 62.6082,212.066 63.4415,213.4 64.5,214.5C 64.5,214.833 64.5,215.167 64.5,215.5C 64.5,216.5 64.5,217.5 64.5,218.5C 63.291,216.059 61.6243,214.059 59.5,212.5C 59.1667,211.167 58.8333,209.833 58.5,208.5C 57.5975,205.609 57.2641,202.609 57.5,199.5C 57.3338,193.158 57.5005,186.825 58,180.5C 58.3826,179.944 58.8826,179.611 59.5,179.5 Z"/></g>
<g><path style="opacity:1" fill="#d28beb" d="M 66.5,156.5 C 65.0731,159.024 63.9064,161.69 63,164.5C 61.0889,174.411 60.2556,184.411 60.5,194.5C 59.5128,189.695 59.1795,184.695 59.5,179.5C 60.6188,172.875 61.6188,166.209 62.5,159.5C 63.6422,158.174 64.9755,157.174 66.5,156.5 Z"/></g>
<g><path style="opacity:1" fill="#e4c0f3" d="M 424.5,177.5 C 424.649,178.552 424.483,179.552 424,180.5C 420.955,182.719 419.789,185.719 420.5,189.5C 420.5,191.5 419.5,192.5 417.5,192.5C 416.5,192.5 415.5,192.5 414.5,192.5C 417.582,188.764 419.415,184.431 420,179.5C 421.11,177.963 422.61,177.297 424.5,177.5 Z"/></g>
<g><path style="opacity:1" fill="#f1d9fb" d="M 260.5,169.5 C 260.611,170.117 260.944,170.617 261.5,171C 259.998,174.005 258.998,177.171 258.5,180.5C 257.351,182.149 256.018,183.649 254.5,185C 254.57,185.765 254.903,186.265 255.5,186.5C 255.5,187.167 255.167,187.5 254.5,187.5C 249.962,190.567 247.462,194.9 247,200.5C 243.955,202.719 242.789,205.719 243.5,209.5C 242.833,209.5 242.5,209.833 242.5,210.5C 240.856,210.286 239.356,210.62 238,211.5C 236.861,214.583 235.528,217.583 234,220.5C 231.929,221.103 230.762,222.436 230.5,224.5C 229.25,226.932 227.75,229.266 226,231.5C 225.503,233.81 225.337,236.143 225.5,238.5C 225.5,239.167 225.167,239.5 224.5,239.5C 224.167,239.5 223.833,239.5 223.5,239.5C 223.335,236.482 223.502,233.482 224,230.5C 224.667,228.5 226,227.167 228,226.5C 229,223.5 230,220.5 231,217.5C 232.011,216.663 233.178,216.33 234.5,216.5C 234.672,211.791 236.839,208.125 241,205.5C 241.333,203.5 241.667,201.5 242,199.5C 243.356,198.62 244.856,198.286 246.5,198.5C 246.249,195.091 246.583,191.758 247.5,188.5C 249.045,187.548 250.712,187.215 252.5,187.5C 252.338,185.473 252.505,183.473 253,181.5C 255.787,177.571 258.287,173.571 260.5,169.5 Z"/></g>
<g><path style="opacity:1" fill="#e0aaf2" d="M 254.5,187.5 C 254.808,189.924 254.474,192.257 253.5,194.5C 251.712,195.283 250.712,196.616 250.5,198.5C 248.929,200.635 247.596,202.968 246.5,205.5C 246.5,205.833 246.5,206.167 246.5,206.5C 245.272,207.306 244.272,208.306 243.5,209.5C 242.789,205.719 243.955,202.719 247,200.5C 247.462,194.9 249.962,190.567 254.5,187.5 Z"/></g>
<g><path style="opacity:1" fill="#c46ae1" d="M 262.5,179.5 C 262.5,180.5 262.5,181.5 262.5,182.5C 262.5,182.833 262.5,183.167 262.5,183.5C 257.294,185.278 255.128,188.945 256,194.5C 254.226,195.965 252.392,197.298 250.5,198.5C 250.712,196.616 251.712,195.283 253.5,194.5C 254.474,192.257 254.808,189.924 254.5,187.5C 255.167,187.5 255.5,187.167 255.5,186.5C 258.027,184.395 260.36,182.061 262.5,179.5 Z"/></g>
<g><path style="opacity:1" fill="#b51ee1" d="M 275.5,169.5 C 274.164,171.01 272.997,172.677 272,174.5C 270.918,179.248 269.585,183.915 268,188.5C 262.967,194.362 257.801,200.029 252.5,205.5C 254.057,201.422 255.89,197.422 258,193.5C 261.116,190.966 262.616,187.633 262.5,183.5C 262.5,183.167 262.5,182.833 262.5,182.5C 266.273,178.552 269.939,174.386 273.5,170C 274.094,169.536 274.761,169.369 275.5,169.5 Z"/></g>
<g><path style="opacity:1" fill="#b51dde" d="M 404.5,193.5 C 405.289,193.783 405.956,194.283 406.5,195C 401.902,199.757 397.902,204.924 394.5,210.5C 393.957,210.44 393.624,210.107 393.5,209.5C 396.144,205.879 397.977,201.879 399,197.5C 400.432,195.561 402.265,194.228 404.5,193.5 Z"/></g>
<g><path style="opacity:1" fill="#e9b8f6" d="M 414.5,193.5 C 414.752,196.32 414.252,198.986 413,201.5C 410.645,202.692 408.812,204.359 407.5,206.5C 407.813,200.908 410.146,196.575 414.5,193.5 Z"/></g>
<g><path style="opacity:1" fill="#d082e9" d="M 60.5,198.5 C 61.5,199.167 62.5,199.833 63.5,200.5C 64.2295,205.13 64.5628,209.797 64.5,214.5C 63.4415,213.4 62.6082,212.066 62,210.5C 61.6958,206.452 61.1958,202.452 60.5,198.5 Z"/></g>
<g><path style="opacity:1" fill="#c66ee2" d="M 250.5,198.5 C 250.313,200.564 249.813,202.564 249,204.5C 248.329,205.252 247.496,205.586 246.5,205.5C 247.596,202.968 248.929,200.635 250.5,198.5 Z"/></g>
<g><path style="opacity:1" fill="#ce81e5" d="M 424.5,171.5 C 424.5,173.5 424.5,175.5 424.5,177.5C 422.61,177.297 421.11,177.963 420,179.5C 419.415,184.431 417.582,188.764 414.5,192.5C 414.5,192.833 414.5,193.167 414.5,193.5C 410.146,196.575 407.813,200.908 407.5,206.5C 407.5,206.833 407.5,207.167 407.5,207.5C 405.983,207.511 404.816,208.177 404,209.5C 402.205,212.099 400.705,214.766 399.5,217.5C 398.171,211.933 400.004,207.933 405,205.5C 404.722,200.723 406.555,197.056 410.5,194.5C 411.429,193.311 411.762,191.978 411.5,190.5C 414.415,187.01 416.582,183.01 418,178.5C 419.242,177.128 420.742,176.128 422.5,175.5C 423.172,174.051 423.839,172.718 424.5,171.5 Z"/></g>
<g><path style="opacity:1" fill="#eab4f9" d="M 203.5,177.5 C 205.004,189.092 204.67,200.759 202.5,212.5C 201.5,212.5 200.5,212.5 199.5,212.5C 199.5,210.833 199.5,209.167 199.5,207.5C 199.433,206.041 199.766,204.708 200.5,203.5C 201.496,203.414 202.329,203.748 203,204.5C 203.5,195.506 203.666,186.506 203.5,177.5 Z"/></g>
<g><path style="opacity:1" fill="#f1dcfc" d="M 414.5,192.5 C 415.5,192.5 416.5,192.5 417.5,192.5C 416.032,195.278 415.199,198.278 415,201.5C 413.333,202.833 411.667,204.167 410,205.5C 410.385,209.876 408.719,213.209 405,215.5C 403.848,218.44 402.848,221.44 402,224.5C 399.124,226.846 396.958,229.513 395.5,232.5C 396.821,228.243 397.821,223.91 398.5,219.5C 399.167,219.5 399.5,219.167 399.5,218.5C 402.127,214.863 404.793,211.196 407.5,207.5C 407.5,207.167 407.5,206.833 407.5,206.5C 408.812,204.359 410.645,202.692 413,201.5C 414.252,198.986 414.752,196.32 414.5,193.5C 414.5,193.167 414.5,192.833 414.5,192.5 Z"/></g>
<g><path style="opacity:1" fill="#b433d7" d="M 411.5,185.5 C 411.5,187.167 411.5,188.833 411.5,190.5C 411.762,191.978 411.429,193.311 410.5,194.5C 406.555,197.056 404.722,200.723 405,205.5C 400.004,207.933 398.171,211.933 399.5,217.5C 397.629,217.859 396.129,218.859 395,220.5C 392.928,223.971 391.428,227.638 390.5,231.5C 388.194,234.473 385.527,237.14 382.5,239.5C 380.406,235.201 381.74,233.201 386.5,233.5C 386.5,230.5 386.5,227.5 386.5,224.5C 388.618,219.607 391.284,214.941 394.5,210.5C 397.902,204.924 401.902,199.757 406.5,195C 405.956,194.283 405.289,193.783 404.5,193.5C 404.5,193.167 404.5,192.833 404.5,192.5C 407.194,190.473 409.527,188.139 411.5,185.5 Z"/></g>
<g><path style="opacity:1" fill="#c973e1" d="M 246.5,206.5 C 246.509,208.308 246.009,209.975 245,211.5C 242.223,214.756 239.723,218.089 237.5,221.5C 237.441,216.995 239.108,213.329 242.5,210.5C 242.5,209.833 242.833,209.5 243.5,209.5C 244.272,208.306 245.272,207.306 246.5,206.5 Z"/></g>
<g><path style="opacity:1" fill="#ebbcf7" d="M 242.5,210.5 C 239.108,213.329 237.441,216.995 237.5,221.5C 237.167,222.5 236.5,223.167 235.5,223.5C 233.784,223.629 232.117,223.962 230.5,224.5C 230.762,222.436 231.929,221.103 234,220.5C 235.528,217.583 236.861,214.583 238,211.5C 239.356,210.62 240.856,210.286 242.5,210.5 Z"/></g>
<g><path style="opacity:1" fill="#af2fd4" d="M 262.5,183.5 C 262.616,187.633 261.116,190.966 258,193.5C 255.89,197.422 254.057,201.422 252.5,205.5C 251.781,207.764 251.448,210.097 251.5,212.5C 250.115,213.614 248.615,214.614 247,215.5C 246.418,219.251 244.251,220.918 240.5,220.5C 240.906,227.031 238.239,231.698 232.5,234.5C 232.368,231.43 232.701,228.43 233.5,225.5C 234.5,225.167 235.167,224.5 235.5,223.5C 236.5,223.167 237.167,222.5 237.5,221.5C 239.723,218.089 242.223,214.756 245,211.5C 246.009,209.975 246.509,208.308 246.5,206.5C 246.5,206.167 246.5,205.833 246.5,205.5C 247.496,205.586 248.329,205.252 249,204.5C 249.813,202.564 250.313,200.564 250.5,198.5C 252.392,197.298 254.226,195.965 256,194.5C 255.128,188.945 257.294,185.278 262.5,183.5 Z"/></g>
<g><path style="opacity:1" fill="#f0d6fb" d="M 59.5,212.5 C 61.6243,214.059 63.291,216.059 64.5,218.5C 64.5,219.167 64.5,219.833 64.5,220.5C 64.634,222.292 64.3007,223.958 63.5,225.5C 62.2502,225.423 61.4169,224.756 61,223.5C 59.8924,219.914 59.3924,216.247 59.5,212.5 Z"/></g>
<g><path style="opacity:1" fill="#e1aef2" d="M 407.5,207.5 C 404.793,211.196 402.127,214.863 399.5,218.5C 399.5,218.167 399.5,217.833 399.5,217.5C 400.705,214.766 402.205,212.099 404,209.5C 404.816,208.177 405.983,207.511 407.5,207.5 Z"/></g>
<g><path style="opacity:1" fill="#d286e8" d="M 64.5,215.5 C 68.0802,220.325 71.4136,225.325 74.5,230.5C 72.2843,229.797 70.451,228.464 69,226.5C 68.6667,226.833 68.3333,227.167 68,227.5C 67.3299,224.826 66.1632,222.493 64.5,220.5C 64.5,219.833 64.5,219.167 64.5,218.5C 64.5,217.5 64.5,216.5 64.5,215.5 Z"/></g>
<g><path style="opacity:1" fill="#d591e8" d="M 199.5,207.5 C 199.5,209.167 199.5,210.833 199.5,212.5C 198.838,217.489 196.838,221.822 193.5,225.5C 191.883,227.121 190.716,229.121 190,231.5C 188.887,232.305 187.721,232.972 186.5,233.5C 188.31,230.803 189.31,227.803 189.5,224.5C 194.65,219.861 197.983,214.195 199.5,207.5 Z"/></g>
<g><path style="opacity:1" fill="#ba49d8" d="M 63.5,196.5 C 64.2216,196.918 64.7216,197.584 65,198.5C 65.1753,203.019 65.6753,207.353 66.5,211.5C 68.5112,215.03 70.3446,218.697 72,222.5C 72.8159,223.823 73.9826,224.489 75.5,224.5C 76.1642,226.487 77.3308,228.154 79,229.5C 79.49,230.793 79.6567,232.127 79.5,233.5C 81.1992,233.34 82.8659,233.506 84.5,234C 85.6148,236.131 86.9481,237.965 88.5,239.5C 90.3603,240.939 92.027,242.605 93.5,244.5C 90.3374,242.754 87.004,241.254 83.5,240C 81.9501,236.949 79.6168,234.782 76.5,233.5C 75.5987,232.71 74.9321,231.71 74.5,230.5C 71.4136,225.325 68.0802,220.325 64.5,215.5C 64.5,215.167 64.5,214.833 64.5,214.5C 64.5628,209.797 64.2295,205.13 63.5,200.5C 63.5,199.167 63.5,197.833 63.5,196.5 Z"/></g>
<g><path style="opacity:1" fill="#e5bdf5" d="M 398.5,219.5 C 397.821,223.91 396.821,228.243 395.5,232.5C 394.5,232.5 393.5,232.5 392.5,232.5C 391.833,232.833 391.167,233.167 390.5,233.5C 390.5,232.833 390.5,232.167 390.5,231.5C 393.179,227.466 395.845,223.466 398.5,219.5 Z"/></g>
<g><path style="opacity:1" fill="#d081e6" d="M 399.5,217.5 C 399.5,217.833 399.5,218.167 399.5,218.5C 399.5,219.167 399.167,219.5 398.5,219.5C 395.845,223.466 393.179,227.466 390.5,231.5C 391.428,227.638 392.928,223.971 395,220.5C 396.129,218.859 397.629,217.859 399.5,217.5 Z"/></g>
<g><path style="opacity:1" fill="#e1a4f1" d="M 235.5,223.5 C 235.167,224.5 234.5,225.167 233.5,225.5C 230.562,228.947 228.562,232.947 227.5,237.5C 226.833,237.833 226.167,238.167 225.5,238.5C 225.337,236.143 225.503,233.81 226,231.5C 227.75,229.266 229.25,226.932 230.5,224.5C 232.117,223.962 233.784,223.629 235.5,223.5 Z"/></g>
<g><path style="opacity:1" fill="#cd7ce4" d="M 233.5,225.5 C 232.701,228.43 232.368,231.43 232.5,234.5C 232.672,235.492 232.338,236.158 231.5,236.5C 231.631,235.761 231.464,235.094 231,234.5C 229.961,235.71 228.794,236.71 227.5,237.5C 228.562,232.947 230.562,228.947 233.5,225.5 Z"/></g>
<g><path style="opacity:1" fill="#dfacef" d="M 64.5,220.5 C 66.1632,222.493 67.3299,224.826 68,227.5C 68.3333,227.167 68.6667,226.833 69,226.5C 70.451,228.464 72.2843,229.797 74.5,230.5C 74.9321,231.71 75.5987,232.71 76.5,233.5C 76.5,234.5 76.5,235.5 76.5,236.5C 74.8853,234.626 72.8853,233.292 70.5,232.5C 69.448,232.649 68.448,232.483 67.5,232C 66.281,229.722 64.9477,227.555 63.5,225.5C 64.3007,223.958 64.634,222.292 64.5,220.5 Z"/></g>
<g><path style="opacity:1" fill="#b846d6" d="M 189.5,224.5 C 189.31,227.803 188.31,230.803 186.5,233.5C 185.833,233.5 185.5,233.833 185.5,234.5C 184.078,234.709 182.745,235.209 181.5,236C 176.602,240.408 171.602,244.574 166.5,248.5C 164.079,248.878 161.746,249.545 159.5,250.5C 160.031,248.376 161.365,246.876 163.5,246C 164.793,245.51 166.127,245.343 167.5,245.5C 167.472,243.418 168.139,241.584 169.5,240C 173.758,237.428 178.258,235.261 183,233.5C 183.494,231.866 183.66,230.199 183.5,228.5C 186.911,229.067 188.911,227.734 189.5,224.5 Z"/></g>
<g><path style="opacity:1" fill="#b624dc" d="M 189.5,218.5 C 189.5,220.5 189.5,222.5 189.5,224.5C 188.911,227.734 186.911,229.067 183.5,228.5C 183.66,230.199 183.494,231.866 183,233.5C 178.258,235.261 173.758,237.428 169.5,240C 168.139,241.584 167.472,243.418 167.5,245.5C 166.127,245.343 164.793,245.51 163.5,246C 161.365,246.876 160.031,248.376 159.5,250.5C 158.5,250.5 157.5,250.5 156.5,250.5C 154.5,250.5 152.5,250.5 150.5,250.5C 153.676,249.579 156.676,248.079 159.5,246C 166.252,239.244 173.586,233.244 181.5,228C 184.304,224.855 186.97,221.688 189.5,218.5 Z"/></g>
<g><path style="opacity:1" fill="#e9c0f5" d="M 193.5,225.5 C 193.662,227.527 193.495,229.527 193,231.5C 187.806,234.521 184.306,238.854 182.5,244.5C 180.5,244.5 178.5,244.5 176.5,244.5C 176.167,244.5 175.833,244.5 175.5,244.5C 178.81,241.285 182.143,237.952 185.5,234.5C 185.5,233.833 185.833,233.5 186.5,233.5C 187.721,232.972 188.887,232.305 190,231.5C 190.716,229.121 191.883,227.121 193.5,225.5 Z"/></g>
<g><path style="opacity:1" fill="#cc79e3" d="M 185.5,234.5 C 182.143,237.952 178.81,241.285 175.5,244.5C 172.905,246.629 169.905,247.962 166.5,248.5C 171.602,244.574 176.602,240.408 181.5,236C 182.745,235.209 184.078,234.709 185.5,234.5 Z"/></g>
<g><path style="opacity:1" fill="#f5dbfc" d="M 392.5,232.5 C 392.918,233.222 393.584,233.722 394.5,234C 392.226,236.344 391.059,239.178 391,242.5C 388.932,244.396 387.099,246.396 385.5,248.5C 386.284,244.277 387.617,240.277 389.5,236.5C 390.11,235.609 390.443,234.609 390.5,233.5C 391.167,233.167 391.833,232.833 392.5,232.5 Z"/></g>
<g><path style="opacity:1" fill="#eac7f7" d="M 70.5,232.5 C 72.8853,233.292 74.8853,234.626 76.5,236.5C 79.5211,238.854 82.1877,241.521 84.5,244.5C 82.8333,244.5 81.1667,244.5 79.5,244.5C 79.6567,243.127 79.49,241.793 79,240.5C 74.3774,239.71 71.5441,237.044 70.5,232.5 Z"/></g>
<g><path style="opacity:1" fill="#cb75e1" d="M 76.5,233.5 C 79.6168,234.782 81.9501,236.949 83.5,240C 87.004,241.254 90.3374,242.754 93.5,244.5C 95.22,245.864 97.22,246.864 99.5,247.5C 100.562,249.022 101.229,250.688 101.5,252.5C 97.9987,249.336 93.9987,247.003 89.5,245.5C 87.8828,244.962 86.2161,244.629 84.5,244.5C 82.1877,241.521 79.5211,238.854 76.5,236.5C 76.5,235.5 76.5,234.5 76.5,233.5 Z"/></g>
<g><path style="opacity:1" fill="#eccbf8" d="M 84.5,244.5 C 86.2161,244.629 87.8828,244.962 89.5,245.5C 89.31,247.959 90.31,249.626 92.5,250.5C 90.1432,250.663 87.8098,250.497 85.5,250C 84.5939,248.301 84.2606,246.467 84.5,244.5 Z"/></g>
<g><path style="opacity:1" fill="#f3dffb" d="M 222.5,239.5 C 220.152,244.861 216.818,249.528 212.5,253.5C 212.245,250.01 213.578,247.343 216.5,245.5C 216.381,241.199 218.381,239.199 222.5,239.5 Z"/></g>
<g><path style="opacity:1" fill="#eabcf6" d="M 389.5,236.5 C 387.617,240.277 386.284,244.277 385.5,248.5C 385.5,248.833 385.5,249.167 385.5,249.5C 382.865,250.473 380.865,252.14 379.5,254.5C 378.889,251.039 380.056,248.372 383,246.5C 384.044,244.285 384.71,241.952 385,239.5C 386.129,237.859 387.629,236.859 389.5,236.5 Z"/></g>
<g><path style="opacity:1" fill="#cc75e3" d="M 390.5,231.5 C 390.5,232.167 390.5,232.833 390.5,233.5C 390.443,234.609 390.11,235.609 389.5,236.5C 387.629,236.859 386.129,237.859 385,239.5C 384.71,241.952 384.044,244.285 383,246.5C 380.056,248.372 378.889,251.039 379.5,254.5C 379.167,254.5 378.833,254.5 378.5,254.5C 377.623,256.728 376.29,258.728 374.5,260.5C 373.833,260.5 373.167,260.5 372.5,260.5C 375.521,257.125 377.521,253.125 378.5,248.5C 380.813,245.98 382.146,242.98 382.5,239.5C 385.527,237.14 388.194,234.473 390.5,231.5 Z"/></g>
<g><path style="opacity:1" fill="#b61adf" d="M 123.5,251.5 C 117.122,251.705 110.789,251.372 104.5,250.5C 104.5,249.167 104.5,247.833 104.5,246.5C 103.209,246.737 102.209,246.404 101.5,245.5C 103.591,245.318 105.591,245.652 107.5,246.5C 114.406,243.359 119.74,245.025 123.5,251.5 Z"/></g>
<g><path style="opacity:1" fill="#e6bff6" d="M 222.5,239.5 C 222.833,239.5 223.167,239.5 223.5,239.5C 223.833,239.5 224.167,239.5 224.5,239.5C 222.84,243.489 221.173,247.489 219.5,251.5C 217.629,251.859 216.129,252.859 215,254.5C 213.582,259.01 211.415,263.01 208.5,266.5C 207.833,266.5 207.167,266.5 206.5,266.5C 206.183,263.428 206.516,260.428 207.5,257.5C 209.419,256.388 211.086,255.054 212.5,253.5C 216.818,249.528 220.152,244.861 222.5,239.5 Z"/></g>
<g><path style="opacity:1" fill="#db9ced" d="M 89.5,245.5 C 93.9987,247.003 97.9987,249.336 101.5,252.5C 101.833,252.5 102.167,252.5 102.5,252.5C 102.833,253.167 103.167,253.833 103.5,254.5C 99.8333,253.167 96.1667,251.833 92.5,250.5C 90.31,249.626 89.31,247.959 89.5,245.5 Z"/></g>
<g><path style="opacity:1" fill="#af2cd2" d="M 101.5,245.5 C 102.209,246.404 103.209,246.737 104.5,246.5C 104.5,247.833 104.5,249.167 104.5,250.5C 110.789,251.372 117.122,251.705 123.5,251.5C 128.825,251.25 133.992,250.25 139,248.5C 142.638,249.857 146.471,250.524 150.5,250.5C 152.5,250.5 154.5,250.5 156.5,250.5C 152.99,251.684 149.657,253.351 146.5,255.5C 145.325,254.145 144.325,254.312 143.5,256C 136.508,256.5 129.508,256.666 122.5,256.5C 118.597,254.102 114.264,252.769 109.5,252.5C 107.167,252.5 104.833,252.5 102.5,252.5C 102.167,252.5 101.833,252.5 101.5,252.5C 101.229,250.688 100.562,249.022 99.5,247.5C 97.22,246.864 95.22,245.864 93.5,244.5C 92.027,242.605 90.3603,240.939 88.5,239.5C 88.3691,238.624 88.7025,237.957 89.5,237.5C 91.7411,238.032 93.2411,239.365 94,241.5C 95.3876,240.446 96.8876,240.28 98.5,241C 98.9147,243.026 99.9147,244.526 101.5,245.5 Z"/></g>
<g><path style="opacity:1" fill="#f4e0fb" d="M 385.5,249.5 C 383.511,253.018 381.677,256.684 380,260.5C 379.329,261.252 378.496,261.586 377.5,261.5C 378.219,259.236 378.552,256.903 378.5,254.5C 378.833,254.5 379.167,254.5 379.5,254.5C 380.865,252.14 382.865,250.473 385.5,249.5 Z"/></g>
<g><path style="opacity:1" fill="#c159dc" d="M 378.5,248.5 C 377.521,253.125 375.521,257.125 372.5,260.5C 371.974,262.23 370.974,263.564 369.5,264.5C 369.5,261.833 369.5,259.167 369.5,256.5C 370.675,256.719 371.675,256.386 372.5,255.5C 374.552,253.122 376.552,250.789 378.5,248.5 Z"/></g>
<g><path style="opacity:1" fill="#e2b3f1" d="M 175.5,244.5 C 171.425,247.737 167.425,251.237 163.5,255C 158.194,255.612 153.194,257.279 148.5,260C 136.156,261.91 123.823,261.91 111.5,260C 109.676,259.34 108.343,258.173 107.5,256.5C 125.579,261.436 143.245,260.269 160.5,253C 162.684,251.637 164.684,250.137 166.5,248.5C 169.905,247.962 172.905,246.629 175.5,244.5 Z"/></g>
<g><path style="opacity:1" fill="#c16ada" d="M 166.5,248.5 C 164.684,250.137 162.684,251.637 160.5,253C 143.245,260.269 125.579,261.436 107.5,256.5C 106.167,255.833 104.833,255.167 103.5,254.5C 103.167,253.833 102.833,253.167 102.5,252.5C 104.833,252.5 107.167,252.5 109.5,252.5C 111.478,255.012 114.145,256.512 117.5,257C 119.387,257.78 121.054,257.613 122.5,256.5C 129.508,256.666 136.508,256.5 143.5,256C 144.325,254.312 145.325,254.145 146.5,255.5C 149.657,253.351 152.99,251.684 156.5,250.5C 157.5,250.5 158.5,250.5 159.5,250.5C 161.746,249.545 164.079,248.878 166.5,248.5 Z"/></g>
<g><path style="opacity:1" fill="#f0d4fa" d="M 175.5,244.5 C 175.833,244.5 176.167,244.5 176.5,244.5C 176.5,246.5 176.5,248.5 176.5,250.5C 174.5,250.5 172.5,250.5 170.5,250.5C 169.681,255.467 166.681,257.634 161.5,257C 159.582,260.462 156.582,262.129 152.5,262C 137.833,262.667 123.167,262.667 108.5,262C 105.785,261.125 104.452,259.292 104.5,256.5C 101.126,256.326 97.7928,255.826 94.5,255C 92.9632,253.89 92.2965,252.39 92.5,250.5C 96.1667,251.833 99.8333,253.167 103.5,254.5C 104.833,255.167 106.167,255.833 107.5,256.5C 108.343,258.173 109.676,259.34 111.5,260C 123.823,261.91 136.156,261.91 148.5,260C 153.194,257.279 158.194,255.612 163.5,255C 167.425,251.237 171.425,247.737 175.5,244.5 Z"/></g>
<g><path style="opacity:1" fill="#b84fd4" d="M 109.5,252.5 C 114.264,252.769 118.597,254.102 122.5,256.5C 121.054,257.613 119.387,257.78 117.5,257C 114.145,256.512 111.478,255.012 109.5,252.5 Z"/></g>
<g><path style="opacity:1" fill="#b321dc" d="M 251.5,212.5 C 250.01,216.685 248.01,220.685 245.5,224.5C 242.011,228.794 238.511,233.127 235,237.5C 234.744,240.557 234.244,243.557 233.5,246.5C 224.64,254.856 218.473,264.856 215,276.5C 209.862,281.459 205.195,286.792 201,292.5C 199.81,296.381 199.143,300.381 199,304.5C 198.578,306.426 197.411,307.426 195.5,307.5C 196.162,303.534 196.495,299.534 196.5,295.5C 198.829,291.541 201.663,287.874 205,284.5C 205.497,282.19 205.663,279.857 205.5,277.5C 207.39,277.703 208.89,277.037 210,275.5C 210.92,272.899 211.587,270.232 212,267.5C 216.05,265.068 218.05,261.401 218,256.5C 220.946,252.888 224.279,249.554 228,246.5C 227.962,242.6 229.129,239.267 231.5,236.5C 232.338,236.158 232.672,235.492 232.5,234.5C 238.239,231.698 240.906,227.031 240.5,220.5C 244.251,220.918 246.418,219.251 247,215.5C 248.615,214.614 250.115,213.614 251.5,212.5 Z"/></g>
<g><path style="opacity:1" fill="#cd7de4" d="M 219.5,251.5 C 216.209,256.171 213.375,261.171 211,266.5C 210.292,267.381 209.458,268.047 208.5,268.5C 208.5,267.833 208.5,267.167 208.5,266.5C 211.415,263.01 213.582,259.01 215,254.5C 216.129,252.859 217.629,251.859 219.5,251.5 Z"/></g>
<g><path style="opacity:1" fill="#dd9fef" d="M 372.5,260.5 C 373.167,260.5 373.833,260.5 374.5,260.5C 373.406,262.359 372.573,264.359 372,266.5C 368.857,270.116 366.023,273.783 363.5,277.5C 363.5,276.5 363.5,275.5 363.5,274.5C 365.959,271.607 367.959,268.274 369.5,264.5C 370.974,263.564 371.974,262.23 372.5,260.5 Z"/></g>
<g><path style="opacity:1" fill="#be56dc" d="M 231.5,236.5 C 229.129,239.267 227.962,242.6 228,246.5C 224.279,249.554 220.946,252.888 218,256.5C 218.05,261.401 216.05,265.068 212,267.5C 211.587,270.232 210.92,272.899 210,275.5C 208.89,277.037 207.39,277.703 205.5,277.5C 207.336,274.817 208.336,271.817 208.5,268.5C 209.458,268.047 210.292,267.381 211,266.5C 213.375,261.171 216.209,256.171 219.5,251.5C 221.173,247.489 222.84,243.489 224.5,239.5C 225.167,239.5 225.5,239.167 225.5,238.5C 226.167,238.167 226.833,237.833 227.5,237.5C 228.794,236.71 229.961,235.71 231,234.5C 231.464,235.094 231.631,235.761 231.5,236.5 Z"/></g>
<g><path style="opacity:1" fill="#e6b1f5" d="M 206.5,266.5 C 207.167,266.5 207.833,266.5 208.5,266.5C 208.5,267.167 208.5,267.833 208.5,268.5C 208.336,271.817 207.336,274.817 205.5,277.5C 204.272,278.306 203.272,279.306 202.5,280.5C 201.833,280.5 201.167,280.5 200.5,280.5C 200.5,278.833 200.5,277.167 200.5,275.5C 201.369,273.283 201.702,270.95 201.5,268.5C 203.781,268.923 205.448,268.256 206.5,266.5 Z"/></g>
<g><path style="opacity:1" fill="#f0d7fb" d="M 200.5,275.5 C 200.5,277.167 200.5,278.833 200.5,280.5C 198.983,280.511 197.816,281.177 197,282.5C 193.903,287.411 191.069,292.411 188.5,297.5C 189.045,294.187 189.545,290.854 190,287.5C 191.356,286.62 192.856,286.286 194.5,286.5C 193.146,280.883 195.146,277.216 200.5,275.5 Z"/></g>
<g><path style="opacity:1" fill="#ca73e3" d="M 363.5,274.5 C 363.5,275.5 363.5,276.5 363.5,277.5C 362.695,279.915 361.695,282.249 360.5,284.5C 358.537,285.96 356.704,287.627 355,289.5C 354.14,292.633 352.64,295.3 350.5,297.5C 353.809,290.514 357.142,283.514 360.5,276.5C 361.357,275.575 362.357,274.908 363.5,274.5 Z"/></g>
<g><path style="opacity:1" fill="#db9fef" d="M 200.5,280.5 C 201.167,280.5 201.833,280.5 202.5,280.5C 200.311,283.319 198.645,286.319 197.5,289.5C 192.252,294.986 188.252,301.319 185.5,308.5C 184.371,306.372 184.204,304.039 185,301.5C 186.376,300.295 187.542,298.962 188.5,297.5C 191.069,292.411 193.903,287.411 197,282.5C 197.816,281.177 198.983,280.511 200.5,280.5 Z"/></g>
<g><path style="opacity:1" fill="#b747d7" d="M 205.5,277.5 C 205.663,279.857 205.497,282.19 205,284.5C 201.663,287.874 198.829,291.541 196.5,295.5C 195.609,296.11 194.609,296.443 193.5,296.5C 195.705,294.637 197.039,292.303 197.5,289.5C 198.645,286.319 200.311,283.319 202.5,280.5C 203.272,279.306 204.272,278.306 205.5,277.5 Z"/></g>
<g><path style="opacity:1" fill="#e1aff4" d="M 360.5,284.5 C 359.832,287.336 358.498,289.836 356.5,292C 355.886,294.854 355.219,297.687 354.5,300.5C 353.311,301.429 351.978,301.762 350.5,301.5C 350.662,303.527 350.495,305.527 350,307.5C 347.435,310.193 345.602,313.193 344.5,316.5C 344.423,312.785 344.756,309.119 345.5,305.5C 347.167,302.833 348.833,300.167 350.5,297.5C 352.64,295.3 354.14,292.633 355,289.5C 356.704,287.627 358.537,285.96 360.5,284.5 Z"/></g>
<g><path style="opacity:1" fill="#efd4fa" d="M 378.5,254.5 C 378.552,256.903 378.219,259.236 377.5,261.5C 375.179,264.362 374.013,267.695 374,271.5C 372.846,272.743 371.512,273.743 370,274.5C 369.759,277.289 369.092,279.956 368,282.5C 363.428,290.082 358.428,297.415 353,304.5C 350.845,310.143 348.178,315.477 345,320.5C 341.001,322.824 338.168,326.157 336.5,330.5C 335.583,331.127 334.583,331.461 333.5,331.5C 335.563,328.382 337.396,325.048 339,321.5C 341.191,320.167 343.024,318.5 344.5,316.5C 345.602,313.193 347.435,310.193 350,307.5C 350.495,305.527 350.662,303.527 350.5,301.5C 351.978,301.762 353.311,301.429 354.5,300.5C 355.219,297.687 355.886,294.854 356.5,292C 358.498,289.836 359.832,287.336 360.5,284.5C 361.695,282.249 362.695,279.915 363.5,277.5C 366.023,273.783 368.857,270.116 372,266.5C 372.573,264.359 373.406,262.359 374.5,260.5C 376.29,258.728 377.623,256.728 378.5,254.5 Z"/></g>
<g><path style="opacity:1" fill="#ebcaf8" d="M 188.5,297.5 C 187.542,298.962 186.376,300.295 185,301.5C 184.204,304.039 184.371,306.372 185.5,308.5C 183.909,309.219 182.409,310.219 181,311.5C 179.768,315.061 178.268,318.394 176.5,321.5C 174.801,321.527 173.467,322.194 172.5,323.5C 172.151,320.01 173.651,317.677 177,316.5C 176.433,311.913 178.099,308.579 182,306.5C 181.366,301.319 183.533,298.319 188.5,297.5 Z"/></g>
<g><path style="opacity:1" fill="#b22cda" d="M 386.5,224.5 C 386.5,227.5 386.5,230.5 386.5,233.5C 381.74,233.201 380.406,235.201 382.5,239.5C 382.146,242.98 380.813,245.98 378.5,248.5C 376.552,250.789 374.552,253.122 372.5,255.5C 371.675,256.386 370.675,256.719 369.5,256.5C 369.5,259.167 369.5,261.833 369.5,264.5C 367.959,268.274 365.959,271.607 363.5,274.5C 362.357,274.908 361.357,275.575 360.5,276.5C 357.142,283.514 353.809,290.514 350.5,297.5C 348.833,300.167 347.167,302.833 345.5,305.5C 342.759,308.534 341.259,312.201 341,316.5C 338.6,318.729 336.433,321.063 334.5,323.5C 332.194,322.215 330.361,322.882 329,325.5C 328.503,327.81 328.337,330.143 328.5,332.5C 326.708,332.366 325.042,332.699 323.5,333.5C 327.555,324.08 332.722,315.08 339,306.5C 338.265,299.634 340.932,294.634 347,291.5C 347.661,287.993 349.495,285.326 352.5,283.5C 351.572,282.232 351.405,280.899 352,279.5C 354.167,276.667 356.333,273.833 358.5,271C 357.446,269.612 357.28,268.112 358,266.5C 359.333,265.167 360.667,263.833 362,262.5C 362.439,257.893 364.939,255.56 369.5,255.5C 369.34,253.801 369.506,252.134 370,250.5C 375.35,243.139 379.683,235.139 383,226.5C 383.816,225.177 384.983,224.511 386.5,224.5 Z"/></g>
<g><path style="opacity:1" fill="#ad32d3" d="M 196.5,295.5 C 196.495,299.534 196.162,303.534 195.5,307.5C 193.141,310.851 190.808,314.185 188.5,317.5C 186.278,317.178 184.444,317.845 183,319.5C 180.975,325.226 178.642,330.893 176,336.5C 174.301,337.406 172.467,337.739 170.5,337.5C 173.572,334.137 175.406,330.137 176,325.5C 179.874,322.42 182.208,318.42 183,313.5C 184.512,312.743 185.846,311.743 187,310.5C 189.454,305.927 191.621,301.261 193.5,296.5C 194.609,296.443 195.609,296.11 196.5,295.5 Z"/></g>
<g><path style="opacity:1" fill="#d492ea" d="M 345.5,305.5 C 344.756,309.119 344.423,312.785 344.5,316.5C 343.024,318.5 341.191,320.167 339,321.5C 337.396,325.048 335.563,328.382 333.5,331.5C 333.5,331.833 333.5,332.167 333.5,332.5C 331.947,334.385 329.947,335.385 327.5,335.5C 330.251,331.748 332.584,327.748 334.5,323.5C 336.433,321.063 338.6,318.729 341,316.5C 341.259,312.201 342.759,308.534 345.5,305.5 Z"/></g>
<g><path style="opacity:1" fill="#f1d6fd" d="M 172.5,326.5 C 171.207,328.296 169.707,329.963 168,331.5C 167.338,333.813 166.838,336.146 166.5,338.5C 166.167,338.5 165.833,338.5 165.5,338.5C 165.335,335.15 165.502,331.817 166,328.5C 167.789,326.771 169.956,326.104 172.5,326.5 Z"/></g>
<g><path style="opacity:1" fill="#c672e2" d="M 197.5,289.5 C 197.039,292.303 195.705,294.637 193.5,296.5C 191.621,301.261 189.454,305.927 187,310.5C 185.846,311.743 184.512,312.743 183,313.5C 182.208,318.42 179.874,322.42 176,325.5C 175.406,330.137 173.572,334.137 170.5,337.5C 169.427,341.378 167.427,344.711 164.5,347.5C 164.873,344.426 165.539,341.426 166.5,338.5C 171.091,333.662 174.425,327.995 176.5,321.5C 178.268,318.394 179.768,315.061 181,311.5C 182.409,310.219 183.909,309.219 185.5,308.5C 188.252,301.319 192.252,294.986 197.5,289.5 Z"/></g>
<g><path style="opacity:1" fill="#e1acf4" d="M 176.5,321.5 C 174.425,327.995 171.091,333.662 166.5,338.5C 166.838,336.146 167.338,333.813 168,331.5C 169.707,329.963 171.207,328.296 172.5,326.5C 172.5,325.5 172.5,324.5 172.5,323.5C 173.467,322.194 174.801,321.527 176.5,321.5 Z"/></g>
<g><path style="opacity:1" fill="#ca7be3" d="M 327.5,335.5 C 327.722,339.842 326.389,343.509 323.5,346.5C 323.5,345.833 323.5,345.167 323.5,344.5C 323.309,340.712 324.642,337.712 327.5,335.5 Z"/></g>
<g><path style="opacity:1" fill="#b03fd4" d="M 334.5,323.5 C 332.584,327.748 330.251,331.748 327.5,335.5C 324.642,337.712 323.309,340.712 323.5,344.5C 320.833,345.167 319.167,346.833 318.5,349.5C 317.549,348.081 317.216,346.415 317.5,344.5C 318.675,344.719 319.675,344.386 320.5,343.5C 322.312,340.397 323.312,337.064 323.5,333.5C 325.042,332.699 326.708,332.366 328.5,332.5C 328.337,330.143 328.503,327.81 329,325.5C 330.361,322.882 332.194,322.215 334.5,323.5 Z"/></g>
<g><path style="opacity:1" fill="#f1dbfb" d="M 163.5,338.5 C 161.508,345.491 158.841,352.158 155.5,358.5C 154.506,368.653 154.172,378.986 154.5,389.5C 153.34,376.673 153.173,363.673 154,350.5C 157.154,347.348 159.487,343.681 161,339.5C 161.671,338.748 162.504,338.414 163.5,338.5 Z"/></g>
<g><path style="opacity:1" fill="#b647d8" d="M 170.5,337.5 C 171.046,342.739 169.212,346.739 165,349.5C 164.667,351.833 164.333,354.167 164,356.5C 162.022,358.972 160.522,361.639 159.5,364.5C 159.547,361.031 160.213,357.698 161.5,354.5C 162.323,352.013 163.323,349.679 164.5,347.5C 167.427,344.711 169.427,341.378 170.5,337.5 Z"/></g>
<g><path style="opacity:1" fill="#c057de" d="M 323.5,344.5 C 323.5,345.167 323.5,345.833 323.5,346.5C 320.391,352.461 316.391,357.795 311.5,362.5C 310.489,356.18 312.822,351.846 318.5,349.5C 319.167,346.833 320.833,345.167 323.5,344.5 Z"/></g>
<g><path style="opacity:1" fill="#f3d9fc" d="M 327.5,349.5 C 323.587,356.596 319.42,363.596 315,370.5C 313.729,371.883 312.229,372.883 310.5,373.5C 312.514,368.465 314.68,363.465 317,358.5C 319.007,355.664 321.174,352.997 323.5,350.5C 324.689,349.571 326.022,349.238 327.5,349.5 Z"/></g>
<g><path style="opacity:1" fill="#b423de" d="M 188.5,317.5 C 188.611,318.117 188.944,318.617 189.5,319C 186.333,324.167 183.167,329.333 180,334.5C 172.995,340.5 169.661,348.166 170,357.5C 168,360.167 166,362.833 164,365.5C 163.076,373.29 163.576,380.957 165.5,388.5C 164.691,390.292 164.191,392.292 164,394.5C 162.472,391.583 161.139,388.583 160,385.5C 160.775,378.5 160.609,371.5 159.5,364.5C 160.522,361.639 162.022,358.972 164,356.5C 164.333,354.167 164.667,351.833 165,349.5C 169.212,346.739 171.046,342.739 170.5,337.5C 172.467,337.739 174.301,337.406 176,336.5C 178.642,330.893 180.975,325.226 183,319.5C 184.444,317.845 186.278,317.178 188.5,317.5 Z"/></g>
<g><path style="opacity:1" fill="#d080e8" d="M 161.5,354.5 C 160.213,357.698 159.547,361.031 159.5,364.5C 158.508,372.316 158.174,380.316 158.5,388.5C 157.732,387.737 157.232,386.737 157,385.5C 156.333,376.5 156.333,367.5 157,358.5C 157.112,355.553 158.612,354.22 161.5,354.5 Z"/></g>
<g><path style="opacity:1" fill="#b442d4" d="M 310.5,364.5 C 310.5,364.833 310.5,365.167 310.5,365.5C 308.088,368.368 306.421,371.701 305.5,375.5C 304.504,375.414 303.671,375.748 303,376.5C 301.451,379.312 300.618,382.312 300.5,385.5C 299.662,385.842 299.328,386.508 299.5,387.5C 298.833,387.5 298.5,387.833 298.5,388.5C 297.833,388.5 297.5,388.833 297.5,389.5C 293.309,393.335 289.976,397.668 287.5,402.5C 287.323,398.766 287.656,395.099 288.5,391.5C 290.167,391.5 291.833,391.5 293.5,391.5C 293.26,388.421 293.593,385.421 294.5,382.5C 295.85,381.05 297.516,380.383 299.5,380.5C 300.043,372.966 303.71,367.633 310.5,364.5 Z"/></g>
<g><path style="opacity:1" fill="#d285e8" d="M 310.5,365.5 C 310.341,369.674 308.675,373.008 305.5,375.5C 306.421,371.701 308.088,368.368 310.5,365.5 Z"/></g>
<g><path style="opacity:1" fill="#b11fdb" d="M 323.5,333.5 C 323.312,337.064 322.312,340.397 320.5,343.5C 319.675,344.386 318.675,344.719 317.5,344.5C 317.216,346.415 317.549,348.081 318.5,349.5C 312.822,351.846 310.489,356.18 311.5,362.5C 311.672,363.492 311.338,364.158 310.5,364.5C 303.71,367.633 300.043,372.966 299.5,380.5C 297.516,380.383 295.85,381.05 294.5,382.5C 293.593,385.421 293.26,388.421 293.5,391.5C 291.833,391.5 290.167,391.5 288.5,391.5C 288.343,386.787 290.176,383.12 294,380.5C 294.333,378.833 294.667,377.167 295,375.5C 299.317,373.185 302.15,369.685 303.5,365C 303.627,360.094 305.794,355.928 310,352.5C 310.794,349.529 311.461,346.529 312,343.5C 314.853,340.948 317.353,338.115 319.5,335C 320.745,334.209 322.078,333.709 323.5,333.5 Z"/></g>
<g><path style="opacity:1" fill="#e7b9f6" d="M 333.5,332.5 C 333.661,336.844 332.161,340.511 329,343.5C 328.685,345.586 328.185,347.586 327.5,349.5C 326.022,349.238 324.689,349.571 323.5,350.5C 321.174,352.997 319.007,355.664 317,358.5C 314.68,363.465 312.514,368.465 310.5,373.5C 308.308,376.55 306.642,379.883 305.5,383.5C 304.5,383.5 303.5,383.5 302.5,383.5C 302.532,385.619 301.532,386.952 299.5,387.5C 299.328,386.508 299.662,385.842 300.5,385.5C 302.147,382.205 303.814,378.872 305.5,375.5C 308.675,373.008 310.341,369.674 310.5,365.5C 310.5,365.167 310.5,364.833 310.5,364.5C 311.338,364.158 311.672,363.492 311.5,362.5C 316.391,357.795 320.391,352.461 323.5,346.5C 326.389,343.509 327.722,339.842 327.5,335.5C 329.947,335.385 331.947,334.385 333.5,332.5 Z"/></g>
<g><path style="opacity:1" fill="#d283e7" d="M 305.5,375.5 C 303.814,378.872 302.147,382.205 300.5,385.5C 300.618,382.312 301.451,379.312 303,376.5C 303.671,375.748 304.504,375.414 305.5,375.5 Z"/></g>
<g><path style="opacity:1" fill="#db9dee" d="M 163.5,338.5 C 164.167,338.5 164.833,338.5 165.5,338.5C 165.833,338.5 166.167,338.5 166.5,338.5C 165.539,341.426 164.873,344.426 164.5,347.5C 163.323,349.679 162.323,352.013 161.5,354.5C 158.612,354.22 157.112,355.553 157,358.5C 156.333,367.5 156.333,376.5 157,385.5C 157.232,386.737 157.732,387.737 158.5,388.5C 160.358,393.644 162.358,398.644 164.5,403.5C 165.75,406.006 166.416,408.673 166.5,411.5C 163.99,408.561 161.657,405.561 159.5,402.5C 159.5,402.167 159.5,401.833 159.5,401.5C 158.438,398.484 157.271,395.484 156,392.5C 155.5,381.172 155.333,369.838 155.5,358.5C 158.841,352.158 161.508,345.491 163.5,338.5 Z"/></g>
<g><path style="opacity:1" fill="#eacef6" d="M 305.5,383.5 C 304.504,387.501 302.504,390.834 299.5,393.5C 298.549,392.081 298.216,390.415 298.5,388.5C 298.5,387.833 298.833,387.5 299.5,387.5C 301.532,386.952 302.532,385.619 302.5,383.5C 303.5,383.5 304.5,383.5 305.5,383.5 Z"/></g>
<g><path style="opacity:1" fill="#e7c2f6" d="M 155.5,358.5 C 155.333,369.838 155.5,381.172 156,392.5C 157.271,395.484 158.438,398.484 159.5,401.5C 157.97,400.933 156.47,400.267 155,399.5C 154.502,396.183 154.335,392.85 154.5,389.5C 154.172,378.986 154.506,368.653 155.5,358.5 Z"/></g>
<g><path style="opacity:1" fill="#d081e6" d="M 297.5,389.5 C 295.544,394.746 293.044,399.746 290,404.5C 288.871,406.141 287.371,407.141 285.5,407.5C 286.942,406.18 287.608,404.514 287.5,402.5C 289.976,397.668 293.309,393.335 297.5,389.5 Z"/></g>
<g><path style="opacity:1" fill="#b451d3" d="M 164.5,403.5 C 166.312,403.771 167.978,404.438 169.5,405.5C 170.417,408.758 170.751,412.091 170.5,415.5C 169.5,414.833 168.5,414.167 167.5,413.5C 167.672,412.508 167.338,411.842 166.5,411.5C 166.416,408.673 165.75,406.006 164.5,403.5 Z"/></g>
<g><path style="opacity:1" fill="#dea9f0" d="M 298.5,388.5 C 298.216,390.415 298.549,392.081 299.5,393.5C 299.167,394.833 298.833,396.167 298.5,397.5C 296.284,398.203 294.451,399.536 293,401.5C 289.607,405.619 287.274,410.286 286,415.5C 283.626,417.539 281.626,419.872 280,422.5C 277.439,423.234 275.273,424.567 273.5,426.5C 273.5,426.167 273.5,425.833 273.5,425.5C 274.833,423.833 276.167,422.167 277.5,420.5C 277.5,419.833 277.5,419.167 277.5,418.5C 281.377,415.758 284.044,412.091 285.5,407.5C 287.371,407.141 288.871,406.141 290,404.5C 293.044,399.746 295.544,394.746 297.5,389.5C 297.5,388.833 297.833,388.5 298.5,388.5 Z"/></g>
<g><path style="opacity:1" fill="#bf51de" d="M 287.5,402.5 C 287.608,404.514 286.942,406.18 285.5,407.5C 284.044,412.091 281.377,415.758 277.5,418.5C 277.446,415.033 278.946,412.366 282,410.5C 282.333,408.5 282.667,406.5 283,404.5C 284.11,402.963 285.61,402.297 287.5,402.5 Z"/></g>
<g><path style="opacity:1" fill="#ce80e3" d="M 167.5,413.5 C 168.5,414.167 169.5,414.833 170.5,415.5C 174.413,416.45 177.08,418.783 178.5,422.5C 179.773,424.713 180.773,427.046 181.5,429.5C 180.504,429.586 179.671,429.252 179,428.5C 178.051,425.66 176.551,423.16 174.5,421C 170.639,419.774 168.306,417.274 167.5,413.5 Z"/></g>
<g><path style="opacity:1" fill="#aa24d1" d="M 288.5,391.5 C 287.656,395.099 287.323,398.766 287.5,402.5C 285.61,402.297 284.11,402.963 283,404.5C 282.667,406.5 282.333,408.5 282,410.5C 278.946,412.366 277.446,415.033 277.5,418.5C 277.5,419.167 277.5,419.833 277.5,420.5C 273.149,419.533 270.815,421.2 270.5,425.5C 268.194,425.993 265.861,426.326 263.5,426.5C 266.535,424.121 268.869,421.121 270.5,417.5C 273.114,414.41 275.947,411.41 279,408.5C 281.703,403.759 283.869,398.759 285.5,393.5C 286.518,392.807 287.518,392.141 288.5,391.5 Z"/></g>
<g><path style="opacity:1" fill="#efd4fa" d="M 298.5,397.5 C 297.811,398.707 297.645,400.041 298,401.5C 296.989,402.337 295.822,402.67 294.5,402.5C 294.135,405.625 293.302,408.625 292,411.5C 290.644,412.38 289.144,412.714 287.5,412.5C 287.477,414.927 286.977,417.26 286,419.5C 282.045,424.578 278.211,429.744 274.5,435C 271.352,436.605 268.019,437.605 264.5,438C 261.452,442.714 257.452,444.214 252.5,442.5C 252.5,442.167 252.5,441.833 252.5,441.5C 261.523,439.17 268.523,434.17 273.5,426.5C 275.273,424.567 277.439,423.234 280,422.5C 281.626,419.872 283.626,417.539 286,415.5C 287.274,410.286 289.607,405.619 293,401.5C 294.451,399.536 296.284,398.203 298.5,397.5 Z"/></g>
<g><path style="opacity:1" fill="#b51ce0" d="M 270.5,417.5 C 268.869,421.121 266.535,424.121 263.5,426.5C 260.703,426.967 259.369,428.633 259.5,431.5C 255.347,431.202 253.347,433.202 253.5,437.5C 253.167,437.5 252.833,437.5 252.5,437.5C 243.167,437.5 233.833,437.5 224.5,437.5C 229.115,432.146 234.615,431.146 241,434.5C 241.374,433.584 241.874,432.75 242.5,432C 245.167,431.667 247.833,431.333 250.5,431C 256.716,425.733 263.382,421.233 270.5,417.5 Z"/></g>
<g><path style="opacity:1" fill="#bf60d7" d="M 178.5,422.5 C 179.552,422.351 180.552,422.517 181.5,423C 183.756,425.122 185.423,427.622 186.5,430.5C 185.833,430.5 185.167,430.5 184.5,430.5C 183.609,429.89 182.609,429.557 181.5,429.5C 180.773,427.046 179.773,424.713 178.5,422.5 Z"/></g>
<g><path style="opacity:1" fill="#af2bd4" d="M 159.5,364.5 C 160.609,371.5 160.775,378.5 160,385.5C 161.139,388.583 162.472,391.583 164,394.5C 164.191,392.292 164.691,390.292 165.5,388.5C 166.169,392.496 167.003,396.496 168,400.5C 171.548,404.002 173.048,408.336 172.5,413.5C 174.92,413.292 177.253,413.626 179.5,414.5C 180.833,416.833 182.167,419.167 183.5,421.5C 185.444,422.189 187.444,422.689 189.5,423C 192.578,425.078 195.578,427.245 198.5,429.5C 200.766,430.314 203.1,430.814 205.5,431C 206.38,432.356 206.714,433.856 206.5,435.5C 208.483,435.157 209.817,435.824 210.5,437.5C 208.833,437.5 207.167,437.5 205.5,437.5C 203.5,437.5 201.5,437.5 199.5,437.5C 199.5,436.5 199.5,435.5 199.5,434.5C 198.5,434.5 197.5,434.5 196.5,434.5C 193.575,432.304 190.242,430.971 186.5,430.5C 185.423,427.622 183.756,425.122 181.5,423C 180.552,422.517 179.552,422.351 178.5,422.5C 177.08,418.783 174.413,416.45 170.5,415.5C 170.751,412.091 170.417,408.758 169.5,405.5C 167.978,404.438 166.312,403.771 164.5,403.5C 162.358,398.644 160.358,393.644 158.5,388.5C 158.174,380.316 158.508,372.316 159.5,364.5 Z"/></g>
<g><path style="opacity:1" fill="#e8c3f5" d="M 159.5,402.5 C 161.657,405.561 163.99,408.561 166.5,411.5C 167.338,411.842 167.672,412.508 167.5,413.5C 168.306,417.274 170.639,419.774 174.5,421C 176.551,423.16 178.051,425.66 179,428.5C 179.671,429.252 180.504,429.586 181.5,429.5C 182.609,429.557 183.609,429.89 184.5,430.5C 186.414,433.107 188.748,435.107 191.5,436.5C 190.833,436.5 190.167,436.5 189.5,436.5C 187.5,436.5 185.5,436.5 183.5,436.5C 183.5,434.833 183.5,433.167 183.5,431.5C 181.801,431.66 180.134,431.494 178.5,431C 174.594,428.558 170.927,425.891 167.5,423C 166.39,419.951 165.723,416.784 165.5,413.5C 163.856,413.714 162.356,413.38 161,412.5C 159.684,409.312 159.184,405.978 159.5,402.5 Z"/></g>
<g><path style="opacity:1" fill="#ce89e2" d="M 184.5,430.5 C 185.167,430.5 185.833,430.5 186.5,430.5C 190.242,430.971 193.575,432.304 196.5,434.5C 196.187,437.837 197.52,440.171 200.5,441.5C 196.926,442.092 194.926,440.592 194.5,437C 193.552,436.517 192.552,436.351 191.5,436.5C 188.748,435.107 186.414,433.107 184.5,430.5 Z"/></g>
<g><path style="opacity:1" fill="#b447d5" d="M 277.5,420.5 C 276.167,422.167 274.833,423.833 273.5,425.5C 271.035,427.314 268.368,428.647 265.5,429.5C 265.703,431.39 265.037,432.89 263.5,434C 260.368,435.782 257.035,436.948 253.5,437.5C 253.347,433.202 255.347,431.202 259.5,431.5C 259.369,428.633 260.703,426.967 263.5,426.5C 265.861,426.326 268.194,425.993 270.5,425.5C 270.815,421.2 273.149,419.533 277.5,420.5 Z"/></g>
<g><path style="opacity:1" fill="#d593ea" d="M 273.5,425.5 C 273.5,425.833 273.5,426.167 273.5,426.5C 268.523,434.17 261.523,439.17 252.5,441.5C 251.903,440.861 251.07,440.528 250,440.5C 246.394,441.428 242.894,442.428 239.5,443.5C 242.926,441.249 246.592,439.583 250.5,438.5C 251.492,438.672 252.158,438.338 252.5,437.5C 252.833,437.5 253.167,437.5 253.5,437.5C 257.035,436.948 260.368,435.782 263.5,434C 265.037,432.89 265.703,431.39 265.5,429.5C 268.368,428.647 271.035,427.314 273.5,425.5 Z"/></g>
<g><path style="opacity:1" fill="#b63ed7" d="M 205.5,437.5 C 207.167,437.5 208.833,437.5 210.5,437.5C 215.167,437.5 219.833,437.5 224.5,437.5C 233.833,437.5 243.167,437.5 252.5,437.5C 252.158,438.338 251.492,438.672 250.5,438.5C 247.15,438.335 243.817,438.502 240.5,439C 228.57,443.94 216.903,443.44 205.5,437.5 Z"/></g>
<g><path style="opacity:1" fill="#c369dc" d="M 196.5,434.5 C 197.5,434.5 198.5,434.5 199.5,434.5C 199.5,435.5 199.5,436.5 199.5,437.5C 201.5,437.5 203.5,437.5 205.5,437.5C 216.903,443.44 228.57,443.94 240.5,439C 243.817,438.502 247.15,438.335 250.5,438.5C 246.592,439.583 242.926,441.249 239.5,443.5C 227.753,445.086 216.087,444.753 204.5,442.5C 203.167,442.167 201.833,441.833 200.5,441.5C 197.52,440.171 196.187,437.837 196.5,434.5 Z"/></g>
<g><path style="opacity:1" fill="#dfa8ed" d="M 252.5,441.5 C 252.5,441.833 252.5,442.167 252.5,442.5C 252.167,442.5 251.833,442.5 251.5,442.5C 248.488,444.502 245.155,445.669 241.5,446C 231.167,446.667 220.833,446.667 210.5,446C 207.655,445.992 205.655,444.825 204.5,442.5C 216.087,444.753 227.753,445.086 239.5,443.5C 242.894,442.428 246.394,441.428 250,440.5C 251.07,440.528 251.903,440.861 252.5,441.5 Z"/></g>
<g><path style="opacity:1" fill="#f0d1f9" d="M 189.5,436.5 C 190.167,436.5 190.833,436.5 191.5,436.5C 192.552,436.351 193.552,436.517 194.5,437C 194.926,440.592 196.926,442.092 200.5,441.5C 201.833,441.833 203.167,442.167 204.5,442.5C 205.655,444.825 207.655,445.992 210.5,446C 220.833,446.667 231.167,446.667 241.5,446C 245.155,445.669 248.488,444.502 251.5,442.5C 251.621,446.107 249.955,448.273 246.5,449C 231.671,449.825 217.004,448.992 202.5,446.5C 202.5,445.5 202.5,444.5 202.5,443.5C 198.692,443.837 195.026,443.337 191.5,442C 189.845,440.556 189.178,438.722 189.5,436.5 Z"/></g>
</svg>
