<?xml version="1.0" standalone="no"?>
<!DOCTYPE svg PUBLIC "-//W3C//DTD SVG 20010904//EN"
 "http://www.w3.org/TR/2001/REC-SVG-20010904/DTD/svg10.dtd">
<svg version="1.0" xmlns="http://www.w3.org/2000/svg"
 width="32.000000pt" height="32.000000pt" viewBox="0 0 32.000000 32.000000"
 preserveAspectRatio="xMidYMid meet">

<g transform="translate(0.000000,32.000000) scale(0.100000,-0.100000)"
fill="#000000" stroke="none">
<path d="M20 298 c-18 -19 -20 -35 -20 -140 0 -159 -1 -158 160 -158 161 0
160 -1 160 160 0 160 0 160 -161 160 -109 0 -120 -2 -139 -22z m248 -84 c27
-19 33 -94 7 -94 -8 0 -15 -7 -15 -15 0 -23 -66 -19 -90 5 -24 24 -28 90 -5
90 8 0 15 7 15 15 0 20 59 20 88 -1z m-181 -41 l22 -28 1 28 c0 18 5 27 16 27
12 0 14 -10 12 -52 -2 -29 -7 -53 -12 -53 -4 0 -29 24 -54 53 -35 41 -41 52
-26 52 10 0 28 -12 41 -27z"/>
<path d="M180 168 l0 -32 30 29 c17 16 30 30 30 32 0 2 -13 3 -30 3 -27 0 -30
-3 -30 -32z"/>
<path d="M230 145 l-23 -25 26 0 c22 0 27 5 27 25 0 14 -1 25 -3 25 -2 0 -14
-11 -27 -25z"/>
</g>
</svg>
