<?xml version="1.0" standalone="no"?>
<!DOCTYPE svg PUBLIC "-//W3C//DTD SVG 20010904//EN"
 "http://www.w3.org/TR/2001/REC-SVG-20010904/DTD/svg10.dtd">
<svg version="1.0" xmlns="http://www.w3.org/2000/svg"
 width="500.000000pt" height="500.000000pt" viewBox="0 0 500.000000 500.000000"
 preserveAspectRatio="xMidYMid meet">

<g transform="translate(0.000000,500.000000) scale(0.100000,-0.100000)"
fill="#000000" stroke="none">
<path d="M3485 4226 c-22 -8 -65 -22 -95 -31 -30 -9 -64 -27 -76 -40 -12 -13
-41 -29 -65 -36 -33 -9 -61 -30 -111 -81 -38 -38 -68 -77 -68 -87 0 -9 -7 -26
-15 -37 -8 -10 -15 -28 -15 -39 0 -11 -10 -25 -22 -30 -22 -10 -51 -55 -103
-164 -14 -29 -46 -78 -70 -108 -25 -30 -48 -67 -52 -81 -3 -15 -17 -40 -30
-55 -12 -16 -23 -35 -23 -43 0 -8 -3 -14 -7 -14 -5 0 -19 -25 -33 -55 -14 -30
-28 -55 -32 -55 -12 0 -38 -57 -38 -84 0 -18 -9 -30 -29 -40 -23 -12 -30 -24
-35 -59 -5 -33 -13 -47 -30 -55 -16 -7 -26 -22 -30 -46 -4 -20 -15 -40 -26
-46 -11 -6 -20 -19 -20 -29 0 -9 -13 -35 -30 -57 -16 -21 -30 -44 -30 -50 0
-7 -14 -25 -32 -42 -29 -30 -34 -43 -38 -122 0 -11 -2 -12 -8 -2 -11 17 -43
-18 -77 -88 -15 -30 -39 -71 -54 -90 -14 -19 -36 -55 -49 -80 -12 -25 -29 -56
-36 -70 -8 -14 -19 -37 -26 -51 -7 -14 -29 -49 -50 -76 -20 -28 -43 -66 -49
-86 -7 -19 -18 -41 -26 -47 -7 -6 -31 -47 -51 -91 -21 -44 -46 -84 -55 -90
-10 -5 -20 -23 -24 -40 -4 -17 -19 -45 -34 -62 -15 -18 -33 -51 -41 -75 -7
-23 -20 -47 -27 -54 -8 -6 -20 -26 -28 -44 -8 -19 -22 -42 -32 -53 -10 -11
-29 -55 -43 -98 -22 -68 -25 -96 -25 -218 0 -130 2 -145 29 -210 15 -38 35
-89 43 -113 11 -30 27 -51 53 -67 41 -26 85 -75 95 -105 7 -23 53 -50 84 -50
32 0 68 -20 82 -46 7 -13 20 -24 29 -24 8 0 32 -8 52 -18 49 -25 249 -29 311
-6 23 9 71 19 107 24 74 8 167 44 175 69 3 9 25 28 49 42 23 15 57 46 74 70
48 69 120 188 128 211 3 11 28 47 54 80 26 33 51 75 54 94 4 18 18 46 31 62
13 16 29 41 34 55 6 15 33 57 61 96 27 38 50 73 50 79 0 6 11 23 24 39 13 16
27 46 31 66 4 20 20 53 36 73 16 20 29 45 29 56 0 10 11 29 25 42 14 13 25 27
25 31 0 4 11 16 24 26 14 11 32 42 41 69 9 27 21 52 26 56 6 3 29 45 51 92 23
48 52 101 64 117 12 17 26 43 29 58 4 16 19 36 32 44 14 9 33 35 43 57 10 23
27 52 39 65 11 13 21 30 21 38 0 7 4 13 8 13 5 0 19 23 32 51 13 28 32 55 42
60 13 7 16 17 12 34 -5 20 3 35 37 73 24 27 52 72 62 100 11 29 32 63 48 76
21 18 29 34 29 56 0 22 9 40 29 59 17 16 32 43 36 65 5 23 17 43 31 53 13 8
24 19 24 24 0 5 16 43 36 85 24 51 43 78 59 84 15 6 27 20 31 37 18 79 26 103
40 118 13 13 15 42 12 188 l-3 172 -32 50 c-18 28 -48 79 -67 115 -19 36 -55
85 -80 110 -25 24 -46 49 -46 55 0 10 -8 14 -110 56 -30 12 -60 28 -66 35 -6
7 -34 16 -63 20 -36 5 -56 13 -67 28 -13 19 -25 21 -127 23 -74 2 -126 -2
-152 -11z"/>
<path d="M990 3745 c-102 -51 -108 -56 -197 -161 -51 -60 -107 -136 -124 -168
l-32 -59 1 -156 c3 -261 11 -351 37 -386 13 -16 30 -46 38 -65 18 -43 138
-170 160 -170 9 0 34 -15 54 -33 65 -57 100 -77 136 -77 19 0 40 -7 47 -15 7
-8 18 -15 25 -15 7 0 15 -7 19 -15 4 -12 31 -15 153 -15 l149 0 26 30 c14 17
35 30 47 30 39 0 155 51 205 90 95 73 166 145 166 167 0 11 16 40 35 63 38 45
41 54 50 145 15 160 17 224 6 256 -6 19 -11 70 -12 114 -1 44 -5 82 -8 85 -13
11 -61 87 -61 96 0 14 -63 74 -77 74 -13 0 -53 52 -53 69 0 19 -84 90 -120
102 -19 6 -44 19 -55 29 -36 33 -94 40 -305 39 l-205 -2 -105 -52z"/>
</g>
</svg>
